<svg xmlns="http://www.w3.org/2000/svg" xmlns:xlink="http://www.w3.org/1999/xlink" viewBox="0 0 100 100"><path fill="#ee3e54" d="M13 27A2 2 0 1 0 13 31A2 2 0 1 0 13 27Z"/><path fill="#f1bc19" d="M77 12A1 1 0 1 0 77 14A1 1 0 1 0 77 12Z"/><path fill="#fce0a2" d="M50 13A37 37 0 1 0 50 87A37 37 0 1 0 50 13Z"/><path fill="#f1bc19" d="M83 11A4 4 0 1 0 83 19A4 4 0 1 0 83 11Z"/><path fill="#ee3e54" d="M87 22A2 2 0 1 0 87 26A2 2 0 1 0 87 22Z"/><path fill="#fbcd59" d="M81 74A2 2 0 1 0 81 78 2 2 0 1 0 81 74zM15 59A4 4 0 1 0 15 67 4 4 0 1 0 15 59z"/><path fill="#ee3e54" d="M25 85A2 2 0 1 0 25 89A2 2 0 1 0 25 85Z"/><path fill="#fff" d="M18.5 51A2.5 2.5 0 1 0 18.5 56A2.5 2.5 0 1 0 18.5 51Z"/><path fill="#f1bc19" d="M21 66A1 1 0 1 0 21 68A1 1 0 1 0 21 66Z"/><path fill="#fff" d="M80 33A1 1 0 1 0 80 35A1 1 0 1 0 80 33Z"/><path fill="#00a698" d="M35,72.3c-4.025,0-7.3-3.274-7.3-7.3V35c0-4.025,3.274-7.3,7.3-7.3h30c4.025,0,7.3,3.274,7.3,7.3 v30c0,4.025-3.274,7.3-7.3,7.3H35z"/><path fill="#472b29" d="M65,28.4c3.639,0,6.6,2.961,6.6,6.6v30c0,3.639-2.961,6.6-6.6,6.6H35c-3.639,0-6.6-2.961-6.6-6.6 V35c0-3.639,2.961-6.6,6.6-6.6H65 M65,27H35c-4.4,0-8,3.6-8,8v30c0,4.4,3.6,8,8,8h30c4.4,0,8-3.6,8-8V35C73,30.6,69.4,27,65,27 L65,27z"/><path fill="#fffef4" d="M62.391,69H37.609C33.974,69,31,66.026,31,62.391V37.609C31,33.974,33.974,31,37.609,31h24.783 C66.026,31,69,33.974,69,37.609v24.783C69,66.026,66.026,69,62.391,69z"/><path fill="#472b29" d="M68.5 47.375c-.276 0-.5-.224-.5-.5V43c0-.276.224-.5.5-.5S69 42.724 69 43v3.875C69 47.151 68.776 47.375 68.5 47.375zM68.5 40.5c-.276 0-.5-.224-.5-.5v-2c0-.276.224-.5.5-.5S69 37.724 69 38v2C69 40.276 68.776 40.5 68.5 40.5z"/><g><path fill="#472b29" d="M64,69H36c-2.757,0-5-2.243-5-5V36c0-2.757,2.243-5,5-5h25.375c0.276,0,0.5,0.224,0.5,0.5 s-0.224,0.5-0.5,0.5H36c-2.206,0-4,1.794-4,4v28c0,2.206,1.794,4,4,4h28c2.206,0,4-1.794,4-4V49.625c0-0.276,0.224-0.5,0.5-0.5 s0.5,0.224,0.5,0.5V64C69,66.757,66.757,69,64,69z"/></g><g><path fill="#78a0cf" d="M44.067,62.541h-1.818c-0.879,0-1.597-0.718-1.597-1.597V44.337c0-0.879,0.718-1.597,1.597-1.597 h1.818c0.879,0,1.597,0.718,1.597,1.597v16.606C45.664,61.822,44.945,62.541,44.067,62.541z"/></g><g><path fill="#472b29" d="M44.004,63h-2.008C40.894,63,40,62.106,40,61.004V43.996C40,42.894,40.894,42,41.996,42h2.008 C45.106,42,46,42.894,46,43.996v17.008C46,62.102,45.102,63,44.004,63z M41,44.199v16.603C41,61.463,41.537,62,42.199,62h1.603 C44.463,62,45,61.463,45,60.801V44.199C45,43.537,44.463,43,43.801,43l-1.603,0C41.537,43,41,43.537,41,44.199z"/></g><g><path fill="#f1bc19" d="M50.407,62.541h-1.814c-0.877,0-1.593-0.718-1.593-1.597V49.165c0-0.879,0.717-1.597,1.593-1.597 h1.814c0.877,0,1.593,0.718,1.593,1.597v11.778C52,61.822,51.283,62.541,50.407,62.541z"/></g><g><path fill="#472b29" d="M51.003,63h-2.007C47.894,63,47,62.106,47,61.004V48.996C47,47.894,47.894,47,48.996,47h2.008 C52.106,47,53,47.894,53,48.996v12.007C53,62.106,52.106,63,51.003,63z M48,49.199v11.603C48,61.463,48.537,62,49.199,62h1.603 C51.463,62,52,61.463,52,60.801V49.199C52,48.537,51.463,48,50.801,48l-1.602,0C48.537,48,48,48.537,48,49.199z"/></g><g><path fill="#88ae45" d="M57.885,62.541h-1.818c-0.879,0-1.597-0.718-1.597-1.597v-6.946c0-0.879,0.718-1.597,1.597-1.597 h1.818c0.879,0,1.597,0.718,1.597,1.597v6.946C59.482,61.822,58.764,62.541,57.885,62.541z"/></g><g><path fill="#472b29" d="M57.885,62.94h-1.817c-1.101,0-1.996-0.895-1.996-1.996v-6.946c0-1.101,0.895-1.996,1.996-1.996 h1.817c1.101,0,1.996,0.895,1.996,1.996v6.946C59.881,62.044,58.986,62.94,57.885,62.94z M56.068,52.799 c-0.661,0-1.199,0.538-1.199,1.199v6.946c0,0.661,0.538,1.199,1.199,1.199h1.817c0.661,0,1.199-0.538,1.199-1.199v-6.946 c0-0.661-0.538-1.199-1.199-1.199H56.068z"/></g><g><path fill="#472b29" d="M61.735,52.829c-0.08,0-0.157-0.035-0.21-0.103l-7.966-10.281l-2.83,2.176 c-0.113,0.086-0.274,0.069-0.365-0.039l-7.229-7.374l-2.9,2.741c-0.107,0.102-0.274,0.096-0.376-0.011 c-0.101-0.107-0.096-0.275,0.011-0.376l3.104-2.933c0.054-0.05,0.125-0.079,0.198-0.072c0.072,0.004,0.14,0.038,0.188,0.094 l7.246,7.395l2.839-2.184c0.115-0.088,0.282-0.068,0.372,0.048l8.129,10.49c0.089,0.116,0.068,0.284-0.047,0.373 C61.85,52.811,61.793,52.829,61.735,52.829z"/></g><g><path fill="#78a0cf" d="M43 36A1 1 0 1 0 43 38A1 1 0 1 0 43 36Z"/><path fill="#472b29" d="M43,38.25c-0.689,0-1.25-0.561-1.25-1.25s0.561-1.25,1.25-1.25s1.25,0.561,1.25,1.25 S43.689,38.25,43,38.25z M43,36.25c-0.414,0-0.75,0.337-0.75,0.75s0.336,0.75,0.75,0.75s0.75-0.337,0.75-0.75 S43.414,36.25,43,36.25z"/></g><g><path fill="#f1bc19" d="M50 43A1 1 0 1 0 50 45A1 1 0 1 0 50 43Z"/><path fill="#472b29" d="M50,45.25c-0.689,0-1.25-0.561-1.25-1.25s0.561-1.25,1.25-1.25s1.25,0.561,1.25,1.25 S50.689,45.25,50,45.25z M50,43.25c-0.414,0-0.75,0.337-0.75,0.75s0.336,0.75,0.75,0.75s0.75-0.337,0.75-0.75 S50.414,43.25,50,43.25z"/></g><g><path fill="#88ae45" d="M57 46A1 1 0 1 0 57 48A1 1 0 1 0 57 46Z"/><path fill="#472b29" d="M57,48.25c-0.689,0-1.25-0.561-1.25-1.25s0.561-1.25,1.25-1.25s1.25,0.561,1.25,1.25 S57.689,48.25,57,48.25z M57,46.25c-0.414,0-0.75,0.337-0.75,0.75s0.336,0.75,0.75,0.75s0.75-0.337,0.75-0.75 S57.414,46.25,57,46.25z"/></g></svg>