<svg xmlns="http://www.w3.org/2000/svg" xmlns:xlink="http://www.w3.org/1999/xlink" viewBox="0 0 100 100"><path fill="#f1bc19" d="M77 12A1 1 0 1 0 77 14A1 1 0 1 0 77 12Z"/><path fill="#e6edb7" d="M50 13A37 37 0 1 0 50 87A37 37 0 1 0 50 13Z"/><path fill="#f1bc19" d="M83 11A4 4 0 1 0 83 19A4 4 0 1 0 83 11Z"/><path fill="#88ae45" d="M87 22A2 2 0 1 0 87 26A2 2 0 1 0 87 22Z"/><path fill="#fbcd59" d="M81 74A2 2 0 1 0 81 78 2 2 0 1 0 81 74zM15 59A4 4 0 1 0 15 67 4 4 0 1 0 15 59z"/><path fill="#88ae45" d="M25 85A2 2 0 1 0 25 89A2 2 0 1 0 25 85Z"/><path fill="#fff" d="M18.5 49A2.5 2.5 0 1 0 18.5 54 2.5 2.5 0 1 0 18.5 49zM79.5 32A1.5 1.5 0 1 0 79.5 35 1.5 1.5 0 1 0 79.5 32z"/><path fill="#67ba8c" d="M35.292,53.3c-0.877,0-1.591-0.714-1.591-1.592V27.292c0-0.878,0.714-1.592,1.591-1.592h34.417 c0.877,0,1.591,0.714,1.591,1.592v24.416c0,0.878-0.714,1.592-1.591,1.592H35.292z"/><path fill="#472b29" d="M69.708,26.4c0.483,0,0.892,0.408,0.892,0.892v24.417c0,0.483-0.408,0.892-0.892,0.892H35.292 c-0.483,0-0.892-0.408-0.892-0.892V27.292c0-0.483,0.408-0.892,0.892-0.892H69.708 M69.708,25H35.292 C34.031,25,33,26.031,33,27.292v24.417C33,52.969,34.031,54,35.292,54h34.417C70.969,54,72,52.969,72,51.708V27.292 C72,26.031,70.969,25,69.708,25L69.708,25z"/><path fill="#ecad6f" d="M35,55.3c-1.268,0-2.3-1.031-2.3-2.3s1.032-2.3,2.3-2.3h36c1.268,0,2.3,1.031,2.3,2.3 s-1.032,2.3-2.3,2.3H35z"/><path fill="#472b29" d="M71,51.4c0.882,0,1.6,0.718,1.6,1.6s-0.718,1.6-1.6,1.6H35c-0.882,0-1.6-0.718-1.6-1.6 s0.718-1.6,1.6-1.6H71 M71,50H35c-1.65,0-3,1.35-3,3s1.35,3,3,3h36c1.65,0,3-1.35,3-3S72.65,50,71,50L71,50z"/><path fill="#fddbbc" d="M34.5 29.7A3.8 3.8 0 1 0 34.5 37.3A3.8 3.8 0 1 0 34.5 29.7Z"/><path fill="#472b29" d="M34.5,30.4c1.709,0,3.1,1.391,3.1,3.1s-1.391,3.1-3.1,3.1s-3.1-1.391-3.1-3.1 S32.791,30.4,34.5,30.4 M34.5,29c-2.485,0-4.5,2.015-4.5,4.5s2.015,4.5,4.5,4.5s4.5-2.015,4.5-4.5S36.985,29,34.5,29L34.5,29z"/><path fill="#fddbbc" d="M48 59.7A3.3 3.3 0 1 0 48 66.3A3.3 3.3 0 1 0 48 59.7Z"/><path fill="#472b29" d="M48,60.4c1.434,0,2.6,1.167,2.6,2.6s-1.166,2.6-2.6,2.6s-2.6-1.167-2.6-2.6S46.566,60.4,48,60.4 M48,59c-2.209,0-4,1.791-4,4s1.791,4,4,4s4-1.791,4-4S50.209,59,48,59L48,59z"/><g><path fill="#48bed8" d="M37.506,70.8c-1.014,0-1.853-0.824-1.871-1.838l-0.34-12.632c-0.01-0.38-0.326-0.706-0.705-0.706 c-0.194,0-0.38,0.081-0.513,0.223c-0.132,0.143-0.203,0.354-0.189,0.548l-0.431,12.557c-0.024,1.022-0.871,1.849-1.886,1.849 c-0.481,0-0.931-0.188-1.265-0.53c-0.334-0.343-0.512-0.797-0.5-1.278l0.302-12.664c0.005-0.206-0.082-0.404-0.236-0.541 c-0.129-0.114-0.294-0.176-0.464-0.176c-0.034,0-0.068,0.003-0.102,0.008c-0.098,0.015-0.177,0.028-0.26,0.028 c-1.006,0-1.825-0.818-1.825-1.825v-9.092c0.001-0.013,0.016-0.121,0.017-0.134c0.073-1.816,1.978-5.732,7.175-5.732 c0,0,0.213,0.006,0.231,0.007c2.893,0.031,4.564,0.543,5.46,0.967c0.218,0.087,0.351,0.156,0.461,0.238l4.351,3.198 c0.12,0.088,0.266,0.136,0.415,0.136h3.919c1.006,0,1.825,0.818,1.825,1.825s-0.819,1.825-1.825,1.825h-4.546 c-0.198,0-0.399-0.038-0.615-0.116c-0.032-0.012-0.064-0.021-0.098-0.028c-0.263-0.055-0.5-0.158-0.706-0.309l-3.218-2.366 c-0.123-0.091-0.268-0.137-0.415-0.137c-0.108,0-0.216,0.025-0.316,0.075c-0.236,0.119-0.384,0.361-0.384,0.625v5.482 c0,0.367,0.021,1.337,0.035,1.99l0.3,16.711c0.008,0.482-0.172,0.937-0.51,1.28S37.989,70.8,37.506,70.8z"/><path fill="#472b29" d="M34.434,39.564c0,0,0.001,0,0.002,0l0.149,0.003c0.027,0.002,0.052,0.003,0.074,0.003 c2.745,0.029,4.314,0.505,5.146,0.899c0.03,0.014,0.06,0.027,0.09,0.039c0.114,0.044,0.198,0.087,0.256,0.13l4.351,3.199 c0.24,0.177,0.531,0.272,0.829,0.272h3.919c0.621,0,1.126,0.505,1.126,1.125s-0.505,1.126-1.126,1.126h-4.546 c-0.114,0-0.236-0.025-0.376-0.075c-0.064-0.023-0.129-0.042-0.195-0.056c-0.165-0.034-0.31-0.097-0.432-0.187l-3.219-2.366 c-0.245-0.18-0.536-0.272-0.829-0.272c-0.216,0-0.432,0.05-0.632,0.151c-0.471,0.238-0.768,0.721-0.768,1.249v5.482 c0,0.376,0.021,1.381,0.035,2.04l0.01,0.511L38.587,69c0.005,0.293-0.105,0.569-0.309,0.778c-0.204,0.208-0.478,0.323-0.772,0.323 c-0.624,0-1.16-0.527-1.171-1.163l-0.34-12.588c0-0.773-0.632-1.425-1.405-1.425c-0.386,0-0.756,0.16-1.02,0.44 c-0.235,0.249-0.371,0.592-0.383,0.935h0l-0.43,12.642c-0.015,0.628-0.558,1.159-1.186,1.159c-0.291,0-0.563-0.114-0.764-0.32 c-0.201-0.206-0.309-0.481-0.302-0.772l0.302-12.664c0.01-0.413-0.179-0.806-0.488-1.08c-0.257-0.228-0.598-0.349-0.94-0.349 c-0.069,0-0.139,0.005-0.207,0.015c-0.043,0.006-0.086,0.015-0.125,0.017c-0.621,0-1.126-0.505-1.126-1.125v-9.035 c0.006-0.047,0.012-0.093,0.015-0.141c0.001-0.017,0.002-0.034,0.003-0.051C27.979,43.596,29.255,39.564,34.434,39.564 M34.602,38.163c-0.014,0-0.027,0.004-0.041,0.004c-0.052,0-0.096-0.004-0.149-0.004c-5.836,0-7.798,4.491-7.873,6.375 c-0.005,0.064-0.019,0.126-0.019,0.191v9.092c0,1.389,1.136,2.525,2.526,2.525c0.124,0,0.243-0.019,0.362-0.037l-0.302,12.664 c-0.033,1.389,1.076,2.525,2.465,2.525s2.553-1.136,2.586-2.525l0.429-12.628c-0.001-0.014,0.002-0.023,0.004-0.023 c0.003,0,0.005,0.008,0.005,0.025l0.34,12.626c0.025,1.389,1.182,2.525,2.571,2.525s2.505-1.136,2.48-2.525l-0.289-16.163 c-0.007-0.392-0.045-2.024-0.045-2.526v-5.482l3.219,2.366c0.3,0.22,0.634,0.358,0.977,0.43c0.268,0.098,0.554,0.16,0.855,0.16 h4.546c1.389,0,2.526-1.136,2.526-2.526c0-1.389-1.136-2.525-2.526-2.525h-3.919L40.98,39.51 c-0.181-0.133-0.376-0.228-0.577-0.306c-0.978-0.463-2.755-1.002-5.73-1.034C34.649,38.17,34.626,38.163,34.602,38.163 L34.602,38.163z"/></g><g><path fill="#472b29" d="M36.5,44h-3c-0.276,0-0.5-0.224-0.5-0.5s0.224-0.5,0.5-0.5h3c0.276,0,0.5,0.224,0.5,0.5 S36.776,44,36.5,44z"/></g><g><path fill="#472b29" d="M30.5,56c-0.276,0-0.5-0.224-0.5-0.5v-11c0-0.276,0.224-0.5,0.5-0.5s0.5,0.224,0.5,0.5v11 C31,55.776,30.776,56,30.5,56z"/></g><g><path fill="#472b29" d="M68.5,40c-0.276,0-0.5-0.224-0.5-0.5V30h-3.688c-0.276,0-0.5-0.224-0.5-0.5s0.224-0.5,0.5-0.5H68.5 c0.276,0,0.5,0.224,0.5,0.5v10C69,39.776,68.776,40,68.5,40z"/></g><g><path fill="#472b29" d="M68.5,47c-0.276,0-0.5-0.224-0.5-0.5V42c0-0.276,0.224-0.5,0.5-0.5S69,41.724,69,42v4.5 C69,46.776,68.776,47,68.5,47z"/></g><g><path fill="#472b29" d="M50.71,44.82c-0.141,0-0.282-0.06-0.38-0.176c-0.179-0.21-0.154-0.525,0.056-0.705l10.01-8.528 c0.209-0.179,0.526-0.154,0.705,0.057c0.179,0.21,0.154,0.525-0.056,0.705l-10.01,8.528C50.94,44.781,50.825,44.82,50.71,44.82z"/></g><g><path fill="#472b29" d="M61,30H41c-0.276,0-0.5-0.224-0.5-0.5S40.724,29,41,29h20c0.276,0,0.5,0.224,0.5,0.5 S61.276,30,61,30z"/></g><g><path fill="#6673a7" d="M43.7,71.3V71c0-2.371,1.929-4.3,4.3-4.3s4.3,1.929,4.3,4.3v0.3H43.7z"/><path fill="#472b29" d="M48,67.4c1.85,0,3.378,1.403,3.578,3.2h-7.156C44.622,68.802,46.15,67.4,48,67.4 M48,66 c-2.761,0-5,2.239-5,5v1h10v-1C53,68.239,50.761,66,48,66L48,66z"/></g><g><path fill="#fddbbc" d="M58 59.7A3.3 3.3 0 1 0 58 66.3A3.3 3.3 0 1 0 58 59.7Z"/><path fill="#472b29" d="M58,60.4c1.434,0,2.6,1.167,2.6,2.6s-1.166,2.6-2.6,2.6s-2.6-1.167-2.6-2.6S56.566,60.4,58,60.4 M58,59c-2.209,0-4,1.791-4,4s1.791,4,4,4s4-1.791,4-4S60.209,59,58,59L58,59z"/></g><g><path fill="#6673a7" d="M53.7,71.3V71c0-2.371,1.929-4.3,4.3-4.3s4.3,1.929,4.3,4.3v0.3H53.7z"/><path fill="#472b29" d="M58,67.4c1.85,0,3.378,1.403,3.578,3.2h-7.156C54.622,68.802,56.15,67.4,58,67.4 M58,66 c-2.761,0-5,2.239-5,5v1h10v-1C63,68.239,60.761,66,58,66L58,66z"/></g><g><path fill="#fddbbc" d="M68 59.7A3.3 3.3 0 1 0 68 66.3A3.3 3.3 0 1 0 68 59.7Z"/><path fill="#472b29" d="M68,60.4c1.434,0,2.6,1.167,2.6,2.6s-1.166,2.6-2.6,2.6s-2.6-1.167-2.6-2.6S66.566,60.4,68,60.4 M68,59c-2.209,0-4,1.791-4,4s1.791,4,4,4s4-1.791,4-4S70.209,59,68,59L68,59z"/></g><g><path fill="#6673a7" d="M63.7,71.3V71c0-2.371,1.929-4.3,4.3-4.3s4.3,1.929,4.3,4.3v0.3H63.7z"/><path fill="#472b29" d="M68,67.4c1.85,0,3.378,1.403,3.578,3.2h-7.156C64.622,68.802,66.15,67.4,68,67.4 M68,66 c-2.761,0-5,2.239-5,5v1h10v-1C73,68.239,70.761,66,68,66L68,66z"/></g></svg>