<svg xmlns="http://www.w3.org/2000/svg" xmlns:xlink="http://www.w3.org/1999/xlink" viewBox="0 0 100 100"><path fill="#f1bc19" d="M77 12A1 1 0 1 0 77 14A1 1 0 1 0 77 12Z"/><path fill="#e4e4f9" d="M50 13A37 37 0 1 0 50 87A37 37 0 1 0 50 13Z"/><path fill="#f1bc19" d="M83 11A4 4 0 1 0 83 19A4 4 0 1 0 83 11Z"/><path fill="#8889b9" d="M87 22A2 2 0 1 0 87 26A2 2 0 1 0 87 22Z"/><path fill="#fbcd59" d="M81 74A2 2 0 1 0 81 78 2 2 0 1 0 81 74zM15 59A4 4 0 1 0 15 67 4 4 0 1 0 15 59z"/><path fill="#8889b9" d="M25 85A2 2 0 1 0 25 89A2 2 0 1 0 25 85Z"/><path fill="#fff" d="M18.5 49A2.5 2.5 0 1 0 18.5 54 2.5 2.5 0 1 0 18.5 49zM79.5 32A1.5 1.5 0 1 0 79.5 35 1.5 1.5 0 1 0 79.5 32z"/><g><path fill="#ee3e54" d="M35,72.3c-4.025,0-7.3-3.274-7.3-7.3V35c0-4.025,3.274-7.3,7.3-7.3h30c4.025,0,7.3,3.274,7.3,7.3 v30c0,4.025-3.274,7.3-7.3,7.3H35z"/><path fill="#472b29" d="M65,28.4c3.639,0,6.6,2.961,6.6,6.6v30c0,3.639-2.961,6.6-6.6,6.6H35c-3.639,0-6.6-2.961-6.6-6.6 V35c0-3.639,2.961-6.6,6.6-6.6H65 M65,27H35c-4.4,0-8,3.6-8,8v30c0,4.4,3.6,8,8,8h30c4.4,0,8-3.6,8-8V35C73,30.6,69.4,27,65,27 L65,27z"/></g><path fill="#fdfcee" d="M68.5,47.875v1.75V64c0,2.475-2.025,4.5-4.5,4.5H36c-2.475,0-4.5-2.025-4.5-4.5V36 c0-2.475,2.025-4.5,4.5-4.5h25.375H64c2.475,0,4.5,2.025,4.5,4.5v3.375v2v1V43.5v2.875V47.875"/><g><path fill="#472b29" d="M68.5,47.375c-0.276,0-0.5-0.224-0.5-0.5V43c0-0.276,0.224-0.5,0.5-0.5S69,42.724,69,43v3.875 C69,47.151,68.776,47.375,68.5,47.375z"/></g><g><path fill="#472b29" d="M68.5,40.5c-0.276,0-0.5-0.224-0.5-0.5v-2c0-0.276,0.224-0.5,0.5-0.5S69,37.724,69,38v2 C69,40.276,68.776,40.5,68.5,40.5z"/></g><g><path fill="#472b29" d="M64,69H36c-2.757,0-5-2.243-5-5V36c0-2.757,2.243-5,5-5h25.375c0.276,0,0.5,0.224,0.5,0.5 s-0.224,0.5-0.5,0.5H36c-2.206,0-4,1.794-4,4v28c0,2.206,1.794,4,4,4h28c2.206,0,4-1.794,4-4V49.625c0-0.276,0.224-0.5,0.5-0.5 s0.5,0.224,0.5,0.5V64C69,66.757,66.757,69,64,69z"/></g><g><path fill="#f1bc19" d="M46.845,58.503v2.419c0,0.665,3.1,1.204,6.924,1.204s6.924-0.539,6.924-1.204v-2.419 C60.693,58.503,46.845,58.503,46.845,58.503z"/><path fill="#472b29" d="M53.769,62.438c-0.74,0-7.231-0.043-7.231-1.516v-2.419c0-0.173,0.137-0.312,0.307-0.312h13.848 c0.17,0,0.307,0.14,0.307,0.312v2.419C61,62.395,54.509,62.438,53.769,62.438z M47.152,58.815v2.107 c0.17,0.277,2.358,0.891,6.617,0.891s6.447-0.614,6.624-0.929l-0.006-2.07H47.152V58.815z"/><path fill="#ffd683" d="M53.769 57.304A6.924 1.204 0 1 0 53.769 59.712A6.924 1.204 0 1 0 53.769 57.304Z"/><path fill="#472b29" d="M53.769,60.024c-0.74,0-7.231-0.043-7.231-1.516s6.491-1.516,7.231-1.516 c0.74,0,7.231,0.043,7.231,1.516S54.509,60.024,53.769,60.024z M53.769,57.616c-4.258,0-6.448,0.614-6.624,0.929 c0.177,0.241,2.367,0.855,6.624,0.855c4.097,0,6.28-0.57,6.595-0.891C60.049,58.186,57.867,57.616,53.769,57.616z M60.393,58.544h0.008H60.393z"/><path fill="#f1bc19" d="M46.845,54.504v2.419c0,0.665,3.1,1.204,6.924,1.204s6.924-0.539,6.924-1.204v-2.419H46.845z"/><path fill="#472b29" d="M53.769,58.439c-0.74,0-7.231-0.043-7.231-1.516v-2.419c0-0.173,0.137-0.312,0.307-0.312h13.848 c0.17,0,0.307,0.14,0.307,0.312v2.419C61,58.397,54.509,58.439,53.769,58.439z M47.152,54.816v2.107 c0.17,0.277,2.358,0.891,6.617,0.891s6.447-0.614,6.624-0.929l-0.006-2.07H47.152V54.816z"/><path fill="#ffd683" d="M53.769 53.306A6.924 1.204 0 1 0 53.769 55.714A6.924 1.204 0 1 0 53.769 53.306Z"/><path fill="#472b29" d="M53.769,56.026c-0.74,0-7.231-0.043-7.231-1.516s6.491-1.516,7.231-1.516 c0.74,0,7.231,0.043,7.231,1.516S54.509,56.026,53.769,56.026z M53.769,53.617c-4.258,0-6.448,0.614-6.624,0.929 c0.176,0.241,2.366,0.855,6.624,0.855c4.098,0,6.281-0.57,6.596-0.891C60.05,54.187,57.868,53.617,53.769,53.617z M60.393,54.546h0.008H60.393z"/><path fill="#f1bc19" d="M46.845,50.506v2.419c0,0.665,3.1,1.204,6.924,1.204s6.924-0.539,6.924-1.204v-2.419H46.845z"/><path fill="#472b29" d="M53.769,54.441c-0.74,0-7.231-0.043-7.231-1.516v-2.419c0-0.173,0.137-0.312,0.307-0.312h13.848 c0.17,0,0.307,0.14,0.307,0.312v2.419C61,54.398,54.509,54.441,53.769,54.441z M47.152,50.818v2.107 c0.17,0.277,2.358,0.891,6.617,0.891s6.447-0.614,6.624-0.929l-0.006-2.07H47.152V50.818z"/><g><path fill="#ffd683" d="M53.769 49.307A6.924 1.204 0 1 0 53.769 51.715A6.924 1.204 0 1 0 53.769 49.307Z"/><path fill="#472b29" d="M53.769,52.027c-0.74,0-7.231-0.043-7.231-1.516c0-1.474,6.491-1.516,7.231-1.516 c0.74,0,7.231,0.043,7.231,1.516C61,51.984,54.509,52.027,53.769,52.027z M53.769,49.62c-4.258,0-6.448,0.614-6.624,0.929 c0.176,0.241,2.366,0.855,6.624,0.855c4.098,0,6.281-0.57,6.596-0.891C60.05,50.189,57.868,49.62,53.769,49.62z M60.393,50.548 h0.008H60.393z"/></g><g><path fill="#f1bc19" d="M46.845,46.508v2.419c0,0.665,3.1,1.204,6.924,1.204s6.924-0.539,6.924-1.204v-2.419 C60.693,46.508,46.845,46.508,46.845,46.508z"/><path fill="#472b29" d="M53.769,50.442c-0.74,0-7.231-0.043-7.231-1.516v-2.418c0-0.173,0.137-0.312,0.307-0.312h13.848 c0.17,0,0.307,0.14,0.307,0.312v2.418C61,50.401,54.509,50.442,53.769,50.442z M47.152,46.82v2.106 c0.17,0.277,2.358,0.891,6.617,0.891s6.447-0.614,6.624-0.929l-0.006-2.069H47.152V46.82z"/><g><path fill="#ffd683" d="M53.769 45.309A6.924 1.204 0 1 0 53.769 47.717A6.924 1.204 0 1 0 53.769 45.309Z"/><path fill="#472b29" d="M53.769,48.029c-0.74,0-7.231-0.043-7.231-1.516c0-1.474,6.491-1.516,7.231-1.516 c0.74,0,7.231,0.043,7.231,1.516C61,47.987,54.509,48.029,53.769,48.029z M53.769,45.622c-4.258,0-6.448,0.614-6.624,0.929 c0.176,0.241,2.366,0.855,6.624,0.855c4.098,0,6.281-0.57,6.596-0.891C60.05,46.19,57.868,45.622,53.769,45.622z M60.393,46.55 h0.008H60.393z"/></g></g><g><path fill="#f1bc19" d="M40.307,60.065v2.419c0,0.665,3.1,1.204,6.924,1.204s6.924-0.539,6.924-1.204v-2.419 C54.155,60.065,40.307,60.065,40.307,60.065z"/><path fill="#472b29" d="M47.231,64C46.491,64,40,63.957,40,62.484v-2.419c0-0.173,0.137-0.312,0.307-0.312h13.849 c0.17,0,0.307,0.14,0.307,0.312v2.419C54.462,63.957,47.972,64,47.231,64z M40.614,60.377v2.107 c0.17,0.277,2.36,0.891,6.617,0.891s6.447-0.614,6.624-0.929l-0.006-2.07H40.614V60.377z"/><g><path fill="#ffd683" d="M47.231 58.866A6.924 1.204 0 1 0 47.231 61.274A6.924 1.204 0 1 0 47.231 58.866Z"/><path fill="#472b29" d="M47.231,61.586c-0.74,0-7.231-0.043-7.231-1.516s6.491-1.516,7.231-1.516 c0.74,0,7.231,0.043,7.231,1.516C54.462,61.544,47.972,61.586,47.231,61.586z M47.231,59.178c-4.258,0-6.447,0.614-6.624,0.928 c0.177,0.241,2.366,0.855,6.624,0.855c4.098,0,6.28-0.57,6.595-0.891C53.512,59.748,51.33,59.178,47.231,59.178z M53.856,60.106 h0.008H53.856z"/></g></g><g><path fill="#f1bc19" d="M40.307,56.066v2.419c0,0.665,3.1,1.204,6.924,1.204s6.924-0.539,6.924-1.204v-2.419H40.307z"/><path fill="#472b29" d="M47.231,60.001c-0.74,0-7.231-0.043-7.231-1.516v-2.419c0-0.173,0.137-0.312,0.307-0.312h13.849 c0.17,0,0.307,0.14,0.307,0.312v2.419C54.462,59.958,47.972,60.001,47.231,60.001z M40.614,56.378v2.107 c0.17,0.277,2.358,0.891,6.617,0.891s6.447-0.614,6.624-0.929l-0.006-2.07H40.614V56.378z"/><g><path fill="#ffd683" d="M47.231 54.867A6.924 1.204 0 1 0 47.231 57.275A6.924 1.204 0 1 0 47.231 54.867Z"/><path fill="#472b29" d="M47.231,57.587c-0.74,0-7.231-0.043-7.231-1.516c0-1.474,6.491-1.516,7.231-1.516 c0.74,0,7.231,0.043,7.231,1.516C54.462,57.544,47.972,57.587,47.231,57.587z M47.231,55.179c-4.258,0-6.447,0.614-6.624,0.928 c0.177,0.241,2.366,0.855,6.624,0.855c4.098,0,6.28-0.57,6.595-0.891C53.512,55.749,51.33,55.179,47.231,55.179z M53.856,56.107 h0.008H53.856z"/></g></g><g><path fill="#f1bc19" d="M40.307,52.253v2.419c0,0.665,3.1,1.204,6.924,1.204s6.924-0.539,6.924-1.204v-2.419 C54.155,52.253,40.307,52.253,40.307,52.253z"/><path fill="#472b29" d="M47.231,56.189c-0.74,0-7.231-0.043-7.231-1.516v-2.419c0-0.173,0.137-0.312,0.307-0.312h13.849 c0.17,0,0.307,0.14,0.307,0.312v2.419C54.462,56.146,47.972,56.189,47.231,56.189z M40.614,52.566v2.107 c0.17,0.277,2.358,0.891,6.617,0.891s6.447-0.614,6.624-0.929l-0.006-2.07H40.614V52.566z"/><g><path fill="#ffd683" d="M47.231 51.054A6.924 1.204 0 1 0 47.231 53.462A6.924 1.204 0 1 0 47.231 51.054Z"/><path fill="#472b29" d="M47.231,53.775c-0.74,0-7.231-0.043-7.231-1.516s6.491-1.516,7.231-1.516 c0.74,0,7.231,0.043,7.231,1.516S47.972,53.775,47.231,53.775z M47.231,51.367c-4.258,0-6.447,0.614-6.624,0.929 c0.177,0.241,2.366,0.855,6.624,0.855c4.098,0,6.281-0.57,6.596-0.891C53.512,51.937,51.331,51.367,47.231,51.367z M53.856,52.295h0.008H53.856z"/></g></g><g><path fill="#f1bc19" d="M46.845,42.51v2.419c0,0.665,3.1,1.204,6.924,1.204s6.924-0.539,6.924-1.204V42.51H46.845z"/><path fill="#472b29" d="M53.769,46.444c-0.74,0-7.231-0.043-7.231-1.516v-2.419c0-0.173,0.137-0.312,0.307-0.312h13.848 c0.17,0,0.307,0.14,0.307,0.312v2.419C61,46.403,54.509,46.444,53.769,46.444z M47.152,42.822v2.107 c0.17,0.277,2.36,0.891,6.617,0.891s6.447-0.614,6.624-0.928l-0.006-2.07H47.152z"/><g><path fill="#ffd683" d="M53.769 41.311A6.924 1.204 0 1 0 53.769 43.719A6.924 1.204 0 1 0 53.769 41.311Z"/><path fill="#472b29" d="M53.769,44.031c-0.74,0-7.231-0.043-7.231-1.516s6.491-1.516,7.231-1.516 c0.74,0,7.231,0.043,7.231,1.516S54.509,44.031,53.769,44.031z M53.769,41.623c-4.258,0-6.447,0.614-6.624,0.929 c0.176,0.241,2.366,0.855,6.624,0.855c4.098,0,6.28-0.57,6.595-0.891C60.049,42.192,57.867,41.623,53.769,41.623z M60.393,42.552h0.008H60.393z"/></g></g><g><path fill="#f1bc19" d="M46.845,38.511v2.419c0,0.665,3.1,1.204,6.924,1.204s6.924-0.539,6.924-1.204v-2.419 C60.693,38.511,46.845,38.511,46.845,38.511z"/><path fill="#472b29" d="M53.769,42.446c-0.74,0-7.231-0.043-7.231-1.516v-2.419c0-0.173,0.137-0.312,0.307-0.312h13.848 c0.17,0,0.307,0.14,0.307,0.312v2.419C61,42.405,54.509,42.446,53.769,42.446z M47.152,38.823v2.107 c0.17,0.277,2.36,0.891,6.617,0.891s6.447-0.614,6.624-0.929l-0.006-2.07H47.152V38.823z"/><g><path fill="#ffd683" d="M53.769 37.313A6.924 1.204 0 1 0 53.769 39.721000000000004A6.924 1.204 0 1 0 53.769 37.313Z"/><path fill="#472b29" d="M53.769,40.033c-0.74,0-7.231-0.043-7.231-1.516S53.028,37,53.769,37 C54.509,37,61,37.043,61,38.516C61,39.991,54.509,40.033,53.769,40.033z M53.769,37.625c-4.258,0-6.447,0.614-6.624,0.928 c0.176,0.241,2.366,0.855,6.624,0.855c4.098,0,6.28-0.57,6.595-0.891C60.049,38.194,57.867,37.625,53.769,37.625z M60.393,38.553h0.008H60.393z"/></g></g></g></svg>