<svg xmlns="http://www.w3.org/2000/svg" xmlns:xlink="http://www.w3.org/1999/xlink" viewBox="0 0 100 100"><path fill="#ee3e54" d="M13 27A2 2 0 1 0 13 31A2 2 0 1 0 13 27Z"/><path fill="#f1bc19" d="M77 12A1 1 0 1 0 77 14A1 1 0 1 0 77 12Z"/><path fill="#fce0a2" d="M50 13A37 37 0 1 0 50 87A37 37 0 1 0 50 13Z"/><path fill="#f1bc19" d="M83 11A4 4 0 1 0 83 19A4 4 0 1 0 83 11Z"/><path fill="#ee3e54" d="M87 22A2 2 0 1 0 87 26A2 2 0 1 0 87 22Z"/><path fill="#fbcd59" d="M81 74A2 2 0 1 0 81 78 2 2 0 1 0 81 74zM15 59A4 4 0 1 0 15 67 4 4 0 1 0 15 59z"/><path fill="#ee3e54" d="M25 85A2 2 0 1 0 25 89A2 2 0 1 0 25 85Z"/><path fill="#fff" d="M18.5 51A2.5 2.5 0 1 0 18.5 56A2.5 2.5 0 1 0 18.5 51Z"/><path fill="#f1bc19" d="M21 66A1 1 0 1 0 21 68A1 1 0 1 0 21 66Z"/><path fill="#fff" d="M80 33A1 1 0 1 0 80 35A1 1 0 1 0 80 33Z"/><path fill="#58589c" d="M39.5,55.373l5.054,12.631c0.678,1.614,0.108,3.349-1.266,3.855l0,0 c-1.374,0.506-3.052-0.4-3.73-2.014L32.5,53.5"/><path fill="#472b29" d="M42.495,72.699c-1.448,0-2.92-1.005-3.583-2.582l-7.055-16.34l1.285-0.555L40.2,69.568 c0.531,1.263,1.832,2.013,2.846,1.634c0.514-0.188,0.78-0.591,0.912-0.895c0.26-0.598,0.242-1.338-0.049-2.031L38.85,55.633 l1.3-0.52l5.054,12.632c0.434,1.032,0.45,2.174,0.038,3.121c-0.341,0.783-0.949,1.369-1.712,1.65 C43.194,72.64,42.845,72.699,42.495,72.699z"/><path fill="#fdfcee" d="M68.19,38.369c1.552,0,2.81,3.893,2.81,8.694s-1.258,8.694-2.81,8.694"/><path fill="#472b29" d="M68.19,56.257v-1c0.964,0,2.31-3.117,2.31-8.193c0-5.077-1.345-8.194-2.31-8.194v-1 c2.173,0,3.31,4.625,3.31,9.194C71.5,51.632,70.363,56.257,68.19,56.257z"/><path fill="#afabd4" d="M66.601,68.521c-0.937,0-1.699-0.715-1.699-1.594l-0.161-2.056 c-0.02-0.249-0.171-0.469-0.397-0.576l-17.626-8.372c-0.095-0.046-0.198-0.068-0.3-0.068c-0.057,0-0.113,0.007-0.168,0.021 l-18.2-1.608c-1.616-0.003-3.349-3.199-3.349-7.786c0-4.53,1.661-7.676,3.213-7.772c0.115-0.007,0.223-0.042,0.316-0.098 l18.061-1.535c0.051,0.012,0.103,0.018,0.154,0.018c0.098,0,0.195-0.021,0.286-0.066l17.626-8.833 c0.209-0.105,0.353-0.308,0.381-0.54l0.158-1.274c0.005-0.965,0.768-1.68,1.705-1.68s1.699,0.715,1.699,1.594v40.634 C68.3,67.807,67.538,68.521,66.601,68.521z"/><path fill="#472b29" d="M66.601,25.4c0.542,0,0.999,0.409,0.999,0.894v40.634c0,0.485-0.458,0.894-0.999,0.894 s-0.999-0.409-0.999-0.894c0-0.037-0.001-0.074-0.004-0.11l-0.158-2c-0.039-0.499-0.343-0.939-0.795-1.154l-17.627-8.372 c-0.182-0.086-0.377-0.128-0.572-0.128c-0.06,0-0.121,0.004-0.181,0.012L28.11,53.57c-0.041-0.004-0.082-0.005-0.123-0.005 c-0.878,0-2.587-2.5-2.587-7.084c0-4.157,1.539-7.01,2.557-7.073c0.164-0.01,0.32-0.048,0.463-0.109l17.788-1.512 c0.069,0.01,0.139,0.015,0.208,0.015c0.214,0,0.429-0.049,0.627-0.148L64.67,28.82c0.419-0.21,0.704-0.615,0.762-1.079 l0.158-1.274c0.007-0.057,0.011-0.115,0.011-0.172C65.601,25.809,66.059,25.4,66.601,25.4 M66.601,24 c-1.319,0-2.399,1.032-2.399,2.294l-0.158,1.274l-17.627,8.833v-0.038L27.87,37.94v0.071C25.722,38.144,24,41.88,24,46.481 c0,4.685,1.785,8.484,3.987,8.484l18.429,1.629v-0.038l17.627,8.372l0.158,2c0,1.261,1.08,2.294,2.399,2.294S69,68.19,69,66.927 V26.294C69,25.032,67.921,24,66.601,24L66.601,24z"/><path fill="#7979b6" d="M28.775 39.417l-.495.188c-1.569.109-2.942 3.247-2.942 7.002 0 3.824 1.305 6.924 2.913 6.924l.524.052L28.775 39.417 28.775 39.417zM66.52 25.191c-.631 0-1.146.975-1.146 2.167l-.041.653v36.714l.041 1.024c0 1.192.516 2.167 1.146 2.167s1.146-.975 1.146-2.167V27.358C67.667 26.166 67.151 25.191 66.52 25.191z"/><g><path fill="#472b29" d="M28.5,53.75c-0.138,0-0.25-0.112-0.25-0.25v-7c0-0.138,0.112-0.25,0.25-0.25s0.25,0.112,0.25,0.25v7 C28.75,53.638,28.638,53.75,28.5,53.75z"/></g><g><path fill="#472b29" d="M28.5,44.75c-0.138,0-0.25-0.112-0.25-0.25v-5c0-0.138,0.112-0.25,0.25-0.25s0.25,0.112,0.25,0.25v5 C28.75,44.638,28.638,44.75,28.5,44.75z"/></g><g><path fill="#472b29" d="M46.499,41.25c-0.138,0-0.25-0.112-0.25-0.25v-3.5c0-0.138,0.112-0.25,0.25-0.25 s0.25,0.112,0.25,0.25V41C46.749,41.138,46.637,41.25,46.499,41.25z"/></g><g><path fill="#472b29" d="M42.5,42h-11c-0.276,0-0.5-0.224-0.5-0.5s0.224-0.5,0.5-0.5h11c0.276,0,0.5,0.224,0.5,0.5 S42.776,42,42.5,42z"/></g><g><path fill="#472b29" d="M42.5,45h-11c-0.276,0-0.5-0.224-0.5-0.5s0.224-0.5,0.5-0.5h11c0.276,0,0.5,0.224,0.5,0.5 S42.776,45,42.5,45z"/></g><g><path fill="#472b29" d="M42.5,48h-11c-0.276,0-0.5-0.224-0.5-0.5s0.224-0.5,0.5-0.5h11c0.276,0,0.5,0.224,0.5,0.5 S42.776,48,42.5,48z"/></g><g><path fill="#472b29" d="M42.5,51h-11c-0.276,0-0.5-0.224-0.5-0.5s0.224-0.5,0.5-0.5h11c0.276,0,0.5,0.224,0.5,0.5 S42.776,51,42.5,51z"/></g><g><path fill="#472b29" d="M46.5,56.25c-0.138,0-0.25-0.112-0.25-0.25v-9.5c0-0.138,0.112-0.25,0.25-0.25s0.25,0.112,0.25,0.25 V56C46.75,56.138,46.638,56.25,46.5,56.25z"/></g><g><path fill="#472b29" d="M64.501,49.5c-0.276,0-0.5-0.224-0.5-0.5V28c0-0.276,0.224-0.5,0.5-0.5s0.5,0.224,0.5,0.5v21 C65.001,49.276,64.777,49.5,64.501,49.5z"/></g><g><path fill="#472b29" d="M64.5,55.5c-0.276,0-0.5-0.224-0.5-0.5v-3.5c0-0.276,0.224-0.5,0.5-0.5s0.5,0.224,0.5,0.5V55 C65,55.276,64.776,55.5,64.5,55.5z"/></g><g><path fill="#472b29" d="M64.502,65.5c-0.276,0-0.5-0.224-0.5-0.5v-7.5c0-0.276,0.224-0.5,0.5-0.5s0.5,0.224,0.5,0.5V65 C65.002,65.276,64.779,65.5,64.502,65.5z"/></g><g><path fill="#472b29" d="M46.5,45.25c-0.138,0-0.25-0.112-0.25-0.25v-2.5c0-0.138,0.112-0.25,0.25-0.25s0.25,0.112,0.25,0.25 V45C46.75,45.138,46.638,45.25,46.5,45.25z"/></g><g><path fill="#472b29" d="M41.057,60.5c-0.102,0-0.165-0.004-0.177-0.005l0.071-0.998c0.014-0.005,1.437,0.085,2.457-0.87 c0.725-0.679,1.092-1.73,1.092-3.127h1c0,1.69-0.478,2.991-1.419,3.867C42.966,60.402,41.551,60.5,41.057,60.5z"/></g></svg>