<svg xmlns="http://www.w3.org/2000/svg" xmlns:xlink="http://www.w3.org/1999/xlink" viewBox="0 0 100 100"><path fill="#f1bc19" d="M77 12A1 1 0 1 0 77 14A1 1 0 1 0 77 12Z"/><path fill="#e6edb7" d="M50 13A37 37 0 1 0 50 87A37 37 0 1 0 50 13Z"/><path fill="#f1bc19" d="M83 11A4 4 0 1 0 83 19A4 4 0 1 0 83 11Z"/><path fill="#88ae45" d="M87 22A2 2 0 1 0 87 26A2 2 0 1 0 87 22Z"/><path fill="#fbcd59" d="M81 74A2 2 0 1 0 81 78 2 2 0 1 0 81 74zM15 59A4 4 0 1 0 15 67 4 4 0 1 0 15 59z"/><path fill="#88ae45" d="M25 85A2 2 0 1 0 25 89A2 2 0 1 0 25 85Z"/><path fill="#fff" d="M18.5 49A2.5 2.5 0 1 0 18.5 54 2.5 2.5 0 1 0 18.5 49zM79.5 32A1.5 1.5 0 1 0 79.5 35 1.5 1.5 0 1 0 79.5 32z"/><path fill="#fffef4" d="M70.771,70H28.604C27.166,70,26,68.834,26,67.396V32.604C26,31.166,27.166,30,28.604,30h42.167 c1.438,0,2.604,1.166,2.604,2.604v34.792C73.375,68.834,72.209,70,70.771,70z"/><path fill="#d6d3c5" d="M73,37H26v-3.708C26,31.474,27.474,30,29.292,30h40.083C71.377,30,73,31.623,73,33.625V37z"/><path fill="#fffef4" d="M57.069 67.603L54.342 74.352 61.091 71.625"/><path fill="#472b29" d="M54.342,75.053c-0.182,0-0.361-0.071-0.495-0.205c-0.198-0.199-0.259-0.497-0.154-0.758 l2.728-6.749l1.299,0.525l-2.11,5.22l5.22-2.11l0.525,1.299l-6.749,2.728C54.52,75.036,54.43,75.053,54.342,75.053z"/><path fill="#ef7d99" d="M74.062,57.429c-0.751,0-1.454-0.29-1.98-0.816s-0.816-1.229-0.816-1.979 c0-0.751,0.29-1.454,0.816-1.98l2.121-2.121c0.526-0.526,1.229-0.816,1.98-0.816c0.75,0,1.453,0.29,1.979,0.816 s0.816,1.229,0.816,1.979c0,0.751-0.29,1.454-0.816,1.979l-2.121,2.122C75.516,57.139,74.812,57.429,74.062,57.429z"/><path fill="#472b29" d="M76.183,50.415c0.564,0,1.091,0.217,1.485,0.611c0.819,0.819,0.819,2.151,0,2.97l-2.121,2.121 c-0.394,0.394-0.921,0.611-1.485,0.611c-0.564,0-1.091-0.217-1.485-0.611c-0.819-0.819-0.819-2.151,0-2.97l2.121-2.121 C75.092,50.632,75.62,50.415,76.183,50.415 M76.183,49.015c-0.897,0-1.794,0.34-2.475,1.021l-2.121,2.121 c-1.361,1.361-1.361,3.589,0,4.95h0c0.681,0.681,1.578,1.021,2.475,1.021c0.897,0,1.794-0.34,2.475-1.021l2.121-2.121 c1.361-1.361,1.361-3.589,0-4.95C77.978,49.355,77.08,49.015,76.183,49.015L76.183,49.015z"/><path fill="#f2df5e" d="M56.337 59.257H76.93700000000001V64.857H56.337z" transform="rotate(-45.001 66.637 62.058)"/><path fill="#472b29" d="M71.941,53.784l2.97,2.97L61.334,70.33l-2.97-2.97L71.941,53.784 M71.941,51.804L56.384,67.36 l4.95,4.95L76.89,56.754L71.941,51.804L71.941,51.804z"/><g><path fill="#88cdd7" d="M72.262 51.832H75.861V57.432H72.262z" transform="rotate(-45.001 74.061 54.633)"/><path fill="#472b29" d="M73.355,52.37l2.97,2.97l-1.556,1.556l-2.97-2.97L73.355,52.37 M73.355,50.39l-3.536,3.536 l4.95,4.95l3.536-3.536L73.355,50.39L73.355,50.39z"/></g><g><path fill="#472b29" d="M55.5,45h-17c-0.276,0-0.5-0.224-0.5-0.5s0.224-0.5,0.5-0.5h17c0.276,0,0.5,0.224,0.5,0.5 S55.776,45,55.5,45z"/></g><g><path fill="#472b29" d="M53.5,37H25.875c-0.276,0-0.5-0.224-0.5-0.5s0.224-0.5,0.5-0.5H53.5c0.276,0,0.5,0.224,0.5,0.5 S53.776,37,53.5,37z"/></g><g><path fill="#472b29" d="M65.5,45h-6c-0.276,0-0.5-0.224-0.5-0.5s0.224-0.5,0.5-0.5h6c0.276,0,0.5,0.224,0.5,0.5 S65.776,45,65.5,45z"/></g><g><path fill="#472b29" d="M62.5,37h-6c-0.276,0-0.5-0.224-0.5-0.5s0.224-0.5,0.5-0.5h6c0.276,0,0.5,0.224,0.5,0.5 S62.776,37,62.5,37z"/></g><g><path fill="#472b29" d="M68.5,37h-3c-0.276,0-0.5-0.224-0.5-0.5s0.224-0.5,0.5-0.5h3c0.276,0,0.5,0.224,0.5,0.5 S68.776,37,68.5,37z"/></g><g><path fill="#472b29" d="M65.5,54h-19c-0.276,0-0.5-0.224-0.5-0.5s0.224-0.5,0.5-0.5h19c0.276,0,0.5,0.224,0.5,0.5 S65.776,54,65.5,54z"/></g><g><path fill="#472b29" d="M43.5,54h-5c-0.276,0-0.5-0.224-0.5-0.5s0.224-0.5,0.5-0.5h5c0.276,0,0.5,0.224,0.5,0.5 S43.776,54,43.5,54z"/></g><g><path fill="#472b29" d="M58.5,62h-20c-0.276,0-0.5-0.224-0.5-0.5s0.224-0.5,0.5-0.5h20c0.276,0,0.5,0.224,0.5,0.5 S58.776,62,58.5,62z"/></g><g><path fill="#472b29" d="M32.4,46.2c-0.132,0-0.26-0.053-0.354-0.146l-2.4-2.4c-0.195-0.195-0.195-0.512,0-0.707 s0.512-0.195,0.707,0l1.993,1.993l3.253-4.339c0.167-0.221,0.48-0.265,0.7-0.101c0.221,0.166,0.266,0.479,0.101,0.7l-3.6,4.8 c-0.087,0.116-0.221,0.188-0.365,0.199C32.424,46.2,32.412,46.2,32.4,46.2z"/></g><g><path fill="#472b29" d="M32.4,55.2c-0.132,0-0.26-0.053-0.354-0.146l-2.4-2.4c-0.195-0.195-0.195-0.512,0-0.707 s0.512-0.195,0.707,0l1.993,1.993l3.253-4.339c0.167-0.221,0.48-0.265,0.7-0.101c0.221,0.166,0.266,0.479,0.101,0.7l-3.6,4.8 c-0.087,0.116-0.221,0.188-0.365,0.199C32.424,55.2,32.412,55.2,32.4,55.2z"/></g><g><path fill="#472b29" d="M32.4,63.2c-0.132,0-0.26-0.053-0.354-0.146l-2.4-2.4c-0.195-0.195-0.195-0.512,0-0.707 s0.512-0.195,0.707,0l1.993,1.993l3.253-4.339c0.167-0.221,0.48-0.266,0.7-0.101c0.221,0.166,0.266,0.479,0.101,0.7l-3.6,4.8 c-0.087,0.116-0.221,0.188-0.365,0.199C32.424,63.2,32.412,63.2,32.4,63.2z"/></g><g><path fill="#472b29" d="M69.343,70.95h-3.426c-0.387,0-0.7-0.313-0.7-0.7s0.313-0.7,0.7-0.7h3.426 c1.723,0,3.124-1.418,3.124-3.16v-3.057c0-0.387,0.313-0.7,0.7-0.7s0.7,0.313,0.7,0.7v3.057 C73.867,68.904,71.838,70.95,69.343,70.95z"/></g><g><path fill="#472b29" d="M50.736,71.033H29.625c-2.568,0-4.658-2.094-4.658-4.667V33.634c0-2.573,2.09-4.667,4.658-4.667 h39.583c2.569,0,4.659,2.094,4.659,4.667v12.895c0,0.387-0.313,0.7-0.7,0.7s-0.7-0.313-0.7-0.7V33.634 c0-1.802-1.462-3.267-3.259-3.267H29.625c-1.797,0-3.258,1.465-3.258,3.267v32.732c0,1.802,1.461,3.267,3.258,3.267h21.111 c0.387,0,0.7,0.313,0.7,0.7S51.123,71.033,50.736,71.033z"/></g></svg>