<svg xmlns="http://www.w3.org/2000/svg" xmlns:xlink="http://www.w3.org/1999/xlink" viewBox="0 0 100 100"><path fill="#f1bc19" d="M77 12A1 1 0 1 0 77 14A1 1 0 1 0 77 12Z"/><path fill="#e6edb7" d="M50 13A37 37 0 1 0 50 87A37 37 0 1 0 50 13Z"/><path fill="#f1bc19" d="M83 11A4 4 0 1 0 83 19A4 4 0 1 0 83 11Z"/><path fill="#88ae45" d="M87 22A2 2 0 1 0 87 26A2 2 0 1 0 87 22Z"/><path fill="#fbcd59" d="M81 74A2 2 0 1 0 81 78 2 2 0 1 0 81 74zM15 59A4 4 0 1 0 15 67 4 4 0 1 0 15 59z"/><path fill="#88ae45" d="M25 85A2 2 0 1 0 25 89A2 2 0 1 0 25 85Z"/><path fill="#fff" d="M18.5 49A2.5 2.5 0 1 0 18.5 54 2.5 2.5 0 1 0 18.5 49zM79.5 32A1.5 1.5 0 1 0 79.5 35 1.5 1.5 0 1 0 79.5 32z"/><g><path fill="#f15b6c" d="M50,78.708C37.162,66.451,30.276,55.957,28.957,46.637l-0.052-0.382 c-0.048-0.388-0.098-0.785-0.128-1.181c-0.052-0.646-0.077-1.216-0.077-1.748c0-11.745,9.555-21.3,21.3-21.3s21.3,9.555,21.3,21.3 c0,0.532-0.025,1.103-0.076,1.746c-0.031,0.397-0.081,0.795-0.13,1.191l-0.05,0.366C69.724,55.957,62.838,66.451,50,78.708z"/><path fill="#472b29" d="M50,22.726c11.359,0,20.6,9.241,20.6,20.6c0,0.514-0.025,1.066-0.076,1.697 c-0.029,0.383-0.077,0.768-0.123,1.136l-0.021,0.157c-0.009,0.068-0.017,0.136-0.03,0.222c-1.28,9.041-7.94,19.255-20.35,31.2 C37.59,65.793,30.93,55.579,29.647,46.52c-0.01-0.067-0.019-0.135-0.028-0.204l-0.019-0.141c-0.048-0.385-0.097-0.77-0.126-1.161 c-0.05-0.622-0.075-1.174-0.075-1.688C29.4,31.967,38.641,22.726,50,22.726 M50,21.326c-12.15,0-22,9.85-22,22 c0,0.607,0.031,1.207,0.08,1.802c0.03,0.406,0.081,0.814,0.133,1.223c0.018,0.128,0.032,0.257,0.052,0.384 c1.483,10.473,9.7,21.538,21.736,32.939h0c12.036-11.401,20.253-22.466,21.736-32.939c0.02-0.127,0.034-0.256,0.052-0.384 c0.051-0.408,0.102-0.816,0.133-1.223c0.048-0.595,0.08-1.195,0.08-1.802C72,31.176,62.15,21.326,50,21.326L50,21.326z"/></g><g><path fill="#fff" d="M50 27A16 16 0 1 0 50 59A16 16 0 1 0 50 27Z"/></g><g><path fill="#472b29" d="M50,59.5c-9.098,0-16.5-7.402-16.5-16.5S40.902,26.5,50,26.5c2.146,0,4.233,0.406,6.204,1.207 c0.256,0.104,0.379,0.396,0.274,0.651c-0.104,0.256-0.396,0.38-0.651,0.274C53.978,27.881,52.017,27.5,50,27.5 c-8.547,0-15.5,6.953-15.5,15.5S41.453,58.5,50,58.5S65.5,51.547,65.5,43c0-0.276,0.224-0.5,0.5-0.5s0.5,0.224,0.5,0.5 C66.5,52.098,59.098,59.5,50,59.5z"/></g><g><path fill="#472b29" d="M65.635,40.09c-0.229,0-0.437-0.16-0.487-0.394c-0.548-2.525-1.739-4.897-3.444-6.86 c-0.182-0.209-0.159-0.524,0.049-0.705c0.209-0.183,0.524-0.158,0.705,0.049c1.816,2.09,3.084,4.615,3.667,7.304 c0.059,0.271-0.112,0.536-0.382,0.595C65.706,40.086,65.67,40.09,65.635,40.09z"/></g><g><path fill="#472b29" d="M60.354,31.302c-0.114,0-0.229-0.039-0.323-0.119c-0.676-0.573-1.402-1.091-2.159-1.538 c-0.238-0.141-0.317-0.447-0.177-0.685c0.142-0.237,0.45-0.315,0.685-0.177c0.807,0.476,1.579,1.026,2.298,1.638 c0.211,0.179,0.236,0.494,0.058,0.704C60.637,31.242,60.496,31.302,60.354,31.302z"/></g><g><path fill="#78a2d2" d="M60.5 40.563L56.521 36.937 56.521 32.563 54.532 32.563 54.532 35.124 50.625 31.563 40.75 40.563 42.596 40.563 42.596 51.563 48.564 51.563 48.564 45.563 52.543 45.563 52.543 51.563 58.511 51.563 58.511 40.563z"/><path fill="#472b29" d="M42.5 46.75c-.138 0-.25-.112-.25-.25v-5.75h-1.606c-.104 0-.196-.063-.233-.16s-.011-.206.065-.275l9.929-9c.096-.086.24-.086.336 0l3.51 3.182V32.5c0-.138.112-.25.25-.25h2c.138 0 .25.112.25.25v4.264l3.918 3.551c.076.069.103.179.065.275s-.13.16-.233.16h-1.75v.75c0 .138-.112.25-.25.25s-.25-.112-.25-.25v-1c0-.138.112-.25.25-.25h1.352l-3.52-3.19c-.052-.048-.082-.115-.082-.186V32.75h-1.5v2.311c0 .099-.059.188-.148.229-.093.041-.196.022-.27-.043l-3.76-3.408-9.28 8.412H42.5c.138 0 .25.112.25.25v6C42.75 46.638 42.638 46.75 42.5 46.75zM58.5 47.75c-.138 0-.25-.112-.25-.25v-4c0-.138.112-.25.25-.25s.25.112.25.25v4C58.75 47.638 58.638 47.75 58.5 47.75zM58.5 51.75h-6c-.138 0-.25-.112-.25-.25v-5.75h-3.5v5.75c0 .138-.112.25-.25.25h-6c-.138 0-.25-.112-.25-.25v-3c0-.138.112-.25.25-.25s.25.112.25.25v2.75h5.5V45.5c0-.138.112-.25.25-.25h4c.138 0 .25.112.25.25v5.75h5.5V48.5c0-.138.112-.25.25-.25s.25.112.25.25v3C58.75 51.638 58.638 51.75 58.5 51.75z"/></g></svg>