<svg xmlns="http://www.w3.org/2000/svg" xmlns:xlink="http://www.w3.org/1999/xlink" viewBox="0 0 100 100"><path fill="#fff" d="M20.4 55.6A.9.9 0 1 0 20.4 57.4.9.9 0 1 0 20.4 55.6zM79.4 30.900000000000002A.7.7 0 1 0 79.4 32.300000000000004.7.7 0 1 0 79.4 30.900000000000002z"/><path fill="#f1bc19" d="M76.8 11.7A.9.9 0 1 0 76.8 13.5.9.9 0 1 0 76.8 11.7zM20.9 63.300000000000004A.9.9 0 1 0 20.9 65.10000000000001.9.9 0 1 0 20.9 63.300000000000004z"/><path fill="#cee1f4" d="M49.7 12.299999999999997A37.5 37.5 0 1 0 49.7 87.3A37.5 37.5 0 1 0 49.7 12.299999999999997Z"/><path fill="#f1bc19" d="M82.3 10.7A4 4 0 1 0 82.3 18.7A4 4 0 1 0 82.3 10.7Z"/><path fill="#ee3e54" d="M86.3 21.900000000000002A1.9 1.9 0 1 0 86.3 25.7A1.9 1.9 0 1 0 86.3 21.900000000000002Z"/><path fill="#fbcd59" d="M77.3 74.3A1.9 1.9 0 1 0 77.3 78.10000000000001 1.9 1.9 0 1 0 77.3 74.3zM14.1 59.3A4 4 0 1 0 14.1 67.3 4 4 0 1 0 14.1 59.3z"/><path fill="#ee3e54" d="M24.4 85.5A1.9 1.9 0 1 0 24.4 89.30000000000001A1.9 1.9 0 1 0 24.4 85.5Z"/><path fill="#fff" d="M18.1 52.1A2.5 2.5 0 1 0 18.1 57.1A2.5 2.5 0 1 0 18.1 52.1Z"/><path fill="#e1e0d8" d="M57.1,68.6H33.9c-2.5,0-4.5-2-4.5-4.4c0-0.1,0-0.1,0-0.2V33.4c0-2.5,1.9-4.5,4.4-4.5 c0,0,0.1,0,0.1,0h23.1c2.5,0,4.6,2,4.7,4.5V64C61.7,66.6,59.6,68.6,57.1,68.6z"/><path fill="#472b29" d="M33.9,69.3c-2.8,0-5.1-2.3-5.2-5.1l0-0.2l0-30.5c0-1.4,0.5-2.7,1.5-3.7c1-1,2.2-1.5,3.6-1.5 l0.2,0l23.1,0c0,0,0,0,0,0c2.9,0,5.2,2.2,5.4,5.1l0,30.7c-0.1,3-2.5,5.3-5.4,5.3c0,0,0,0,0,0H33.9 C33.9,69.3,33.9,69.3,33.9,69.3z M33.8,29.6c-1,0-1.9,0.4-2.6,1.1c-0.7,0.7-1.1,1.7-1.1,2.7l0,30.6l0,0.2c0,2.1,1.7,3.7,3.8,3.7 c0,0,0,0,0,0h23.1c2.2,0,3.9-1.7,4-3.9V33.4c-0.1-2.1-1.9-3.7-4-3.7c0,0,0,0,0,0L33.8,29.6z"/><path fill="#fdfcef" d="M36.5,32.8H55c2.2,0,3.9,1.7,3.9,3.9c0,0,0,0,0,0v25.4c0,1.7-1.3,3-3,3h0H35.2c-1.7,0-3-1.3-3-3 l0,0v-25C32.2,34.8,34.1,32.9,36.5,32.8z"/><path fill="#472b29" d="M58.9 49.9c-.2 0-.4-.2-.4-.4V48c0-.2.2-.4.4-.4s.4.2.4.4v1.6C59.3 49.8 59.1 49.9 58.9 49.9zM58.9 54.1c-.2 0-.4-.2-.4-.4v-2.6c0-.2.2-.4.4-.4s.4.2.4.4v2.6C59.3 53.9 59.1 54.1 58.9 54.1z"/><path fill="#472b29" d="M55.1 65.6h-19c-2.7 0-4.2-1.1-4.2-3v-26c0-1.3.7-2.6 1.8-3.3.7-.5 1.6-.8 2.4-.8 0 0 0 0 0 0 .2 0 .4.2.4.4 0 .2-.2.4-.4.4-.7 0-1.4.2-2 .6-.9.6-1.4 1.6-1.4 2.7v26c0 1.5 1.2 2.3 3.4 2.3h19c3.4 0 3.4-1.7 3.4-2.3v-7.8c0-.2.2-.4.4-.4s.4.2.4.4v7.8C59.3 63.9 58.5 65.6 55.1 65.6zM58.9 45.7c-.2 0-.4-.2-.4-.4v-8.8c0-1.1-.5-2.1-1.4-2.7-.6-.4-1.3-.6-2-.6-.2 0-.4-.2-.4-.4s.2-.4.4-.4l0 0c.9 0 1.7.3 2.4.8 1.1.8 1.7 2 1.7 3.3v8.8C59.3 45.6 59.1 45.7 58.9 45.7zM56.5 31c-.3 0-.5-.2-.5-.5v-3.1c0-.3.2-.5.5-.5s.5.2.5.5v3.1C57 30.8 56.8 31 56.5 31zM52.9 31c-.3 0-.5-.2-.5-.5v-3.1c0-.3.2-.5.5-.5s.5.2.5.5v3.1C53.4 30.8 53.2 31 52.9 31zM49.2 31c-.3 0-.5-.2-.5-.5v-3.1c0-.3.2-.5.5-.5s.5.2.5.5v3.1C49.7 30.8 49.5 31 49.2 31zM45.6 31c-.3 0-.5-.2-.5-.5v-3.1c0-.3.2-.5.5-.5s.5.2.5.5v3.1C46.1 30.8 45.9 31 45.6 31zM41.9 31c-.3 0-.5-.2-.5-.5v-3.1c0-.3.2-.5.5-.5s.5.2.5.5v3.1C42.4 30.8 42.2 31 41.9 31zM38.3 31c-.3 0-.5-.2-.5-.5v-3.1c0-.3.2-.5.5-.5s.5.2.5.5v3.1C38.8 30.8 38.5 31 38.3 31zM34.6 31c-.3 0-.5-.2-.5-.5v-3.1c0-.3.2-.5.5-.5s.5.2.5.5v3.1C35.1 30.8 34.9 31 34.6 31z"/><path fill="#78a0cf" d="M56.8 38.4H35.4c-.2 0-.4-.2-.4-.4s.2-.4.4-.4h21.4c.2 0 .4.2.4.4S57 38.4 56.8 38.4zM56.8 40.5H35.4c-.2 0-.4-.2-.4-.4s.2-.4.4-.4h21.4c.2 0 .4.2.4.4S57 40.5 56.8 40.5zM56.8 42.6H35.4c-.2 0-.4-.2-.4-.4s.2-.4.4-.4h21.4c.2 0 .4.2.4.4S57 42.6 56.8 42.6zM56.8 44.7H35.4c-.2 0-.4-.2-.4-.4s.2-.4.4-.4h21.4c.2 0 .4.2.4.4S57 44.7 56.8 44.7zM56.8 46.8H35.4c-.2 0-.4-.2-.4-.4s.2-.4.4-.4h21.4c.2 0 .4.2.4.4S57 46.8 56.8 46.8zM56.8 48.9H35.4c-.2 0-.4-.2-.4-.4s.2-.4.4-.4h21.4c.2 0 .4.2.4.4S57 48.9 56.8 48.9zM56.8 51H35.4c-.2 0-.4-.2-.4-.4s.2-.4.4-.4h21.4c.2 0 .4.2.4.4S57 51 56.8 51zM56.8 53.1H35.4c-.2 0-.4-.2-.4-.4s.2-.4.4-.4h21.4c.2 0 .4.2.4.4S57 53.1 56.8 53.1zM56.8 55.1H35.4c-.2 0-.4-.2-.4-.4s.2-.4.4-.4h21.4c.2 0 .4.2.4.4S57 55.1 56.8 55.1zM56.8 57.2H35.4c-.2 0-.4-.2-.4-.4s.2-.4.4-.4h21.4c.2 0 .4.2.4.4S57 57.2 56.8 57.2zM56.8 59.3H35.4c-.2 0-.4-.2-.4-.4s.2-.4.4-.4h21.4c.2 0 .4.2.4.4S57 59.3 56.8 59.3zM56.8 61.4H35.4c-.2 0-.4-.2-.4-.4s.2-.4.4-.4h21.4c.2 0 .4.2.4.4S57 61.4 56.8 61.4z" opacity=".49"/><path fill="#f4989e" d="M37.5,63.5c-0.2,0-0.4-0.2-0.4-0.4V36c0-0.2,0.2-0.4,0.4-0.4s0.4,0.2,0.4,0.4v27.1 C37.9,63.3,37.7,63.5,37.5,63.5z"/><path fill="#895f3f" d="M77.3,60c-0.1-1.5-1.1-2.7-2.6-3.1l-0.3-0.1L74,56.6c-1-0.4-6.7-2.5-6.7-2.5 c-0.4-0.1-0.8-0.4-1-0.8c-0.2-0.7-0.2-1.5-0.2-2.2c-1.3,0.4-2.6,0.8-3.9,1.1c-1.5,0.2-4.6-1.8-4.6-1.8s-0.1,2.4-0.2,2.9 c-0.1,0.5-0.5,0.8-1,0.9l-5.5,2c-0.6,0.2-1.2,0.4-1.7,0.7c-1.2,0.7-2,1.9-2.5,3.2c0,0-0.4,2.6-0.3,2.7c0,0.4-0.1,0.8-0.1,1.2 c6,4.1,10.9,5.2,19.2,4.9c4.3-0.4,8.5-1.6,12.3-3.5C77.6,61.9,77.3,60,77.3,60z"/><path fill="#fdfcef" d="M74.7,56.9l-0.3-0.1L74,56.6c-0.6-0.3-3-1.2-4.8-1.8h-0.1c-1.9,1-4.7,2.5-7.3,2.5 s-5.1-1.4-7.3-2.5l-0.3,0.1l-3.4,1.3c-0.6,0.1-1.2,0.4-1.7,0.7c-1.2,0.7-2,1.9-2.5,3.2c0,0-0.4,2.6-0.3,2.7 c0,0.4-0.1,4.2-0.1,4.6c6,4.1,10.9,5.2,19.2,4.9c4.3-0.4,8.5-1.6,12.3-3.5c-0.2-3.3-0.4-8.7-0.4-8.7 C77.2,58.5,76.1,57.3,74.7,56.9z"/><path fill="#cbc9bc" d="M51.5 70.7c-.2 0-.3-.1-.3-.3v-3.1c0-.2.1-.3.3-.3s.3.1.3.3v3.1C51.8 70.5 51.7 70.7 51.5 70.7zM72 71.2c-.2 0-.3-.1-.3-.3v-3.6c0-.2.1-.3.3-.3s.3.1.3.3v3.6C72.3 71.1 72.1 71.2 72 71.2z"/><path fill="#512c2b" d="M73.9,39.7c-0.1-0.3-0.4-0.6-0.7-0.7h-0.1c0,0,0,0,0-0.1c0.1-0.2,0.2-0.4,0.2-0.6v-0.1 c0-0.3-0.1-0.6-0.3-0.9L72.8,37l0.1-0.1c0.3-0.3,0.5-0.7,0.5-1.2v-0.1c0-0.3-0.1-0.6-0.3-0.8l-0.3-0.3l-0.2-0.2l0.1-0.1 c0.3-0.2,0.4-0.6,0.4-0.9c0-0.2,0-0.4-0.1-0.5c0-0.2-0.1-0.3-0.3-0.5c-0.1-0.1-0.3-0.2-0.4-0.3c-0.2-0.1-0.3-0.1-0.5-0.1h-0.2 c0.2-0.3,0.3-0.7,0.2-1.1c-0.1-0.9-0.9-1.7-1.9-1.7c0,0,0-0.1,0-0.1c0-1.1-0.9-2.1-2-2.1c-0.3,0-0.6,0.1-0.9,0.2 c-0.3-0.8-1-1.2-1.9-1.2c-0.3,0-0.5,0.1-0.7,0.2l0,0l-0.2-0.3c-0.3-0.3-0.6-0.4-1-0.5c-0.2,0-0.4,0-0.6,0.1 c-0.2,0-0.4,0.1-0.5,0.3c-0.1,0.1-0.2,0.2-0.3,0.3c-0.1-0.1-0.2-0.2-0.3-0.3c-0.1-0.1-0.3-0.2-0.5-0.3c-0.2-0.1-0.4-0.1-0.6-0.1 c-0.4,0-0.7,0.2-1,0.5L59.4,26l0,0c-0.2-0.1-0.5-0.2-0.7-0.2c-0.8-0.1-1.6,0.4-1.9,1.2c-0.3-0.1-0.6-0.2-0.9-0.2 c-1.1,0-2,1-2,2.1c0,0,0,0.1,0,0.1c-0.9,0-1.7,0.7-1.9,1.6c0,0.4,0,0.7,0.2,1.1h-0.2c-0.2,0-0.4,0-0.5,0.1 c-0.2,0.1-0.3,0.2-0.5,0.3c-0.2,0.3-0.4,0.6-0.4,1c0,0.4,0.2,0.7,0.5,0.9l0.1,0.1l-0.2,0.2l-0.3,0.3c-0.2,0.2-0.3,0.5-0.3,0.8 v0.1c0,0.2,0,0.4,0.1,0.6c0.1,0.2,0.2,0.4,0.3,0.5l0.1,0.1l-0.3,0.3c-0.2,0.3-0.2,0.6-0.3,0.9v0.1c0,0.2,0,0.4,0.1,0.6V39h-0.1 c-0.3,0.1-0.6,0.4-0.7,0.7c-0.1,0.3-0.1,0.6,0,0.9l0.1,0.3c0.2,0.3,0.4,0.5,0.8,0.6c0.1,0,0.3,0.1,0.4,0.1c0,0.1,0.1,0.2,0.1,0.3 c0.1,0.1,0.1,0.3,0.3,0.4c0.2,0.2,0.6,0.3,0.9,0.3h0.1c-0.1,0.2-0.2,0.5-0.2,0.7v0.1c0,0.2,0,0.4,0.1,0.5 c0.1,0.2,0.2,0.3,0.3,0.5c0.1,0.1,0.3,0.2,0.5,0.3c0.2,0.1,0.4,0.1,0.5,0.1h0.4h0.1c0,0.1,0,0.2,0.1,0.4c0.1,0.2,0.1,0.4,0.3,0.5 c0.1,0.2,0.3,0.3,0.5,0.4c0.2,0.1,0.4,0.2,0.6,0.2h0.4c0.1,0,0.2,0,0.4-0.1c0.1,0.1,0.1,0.2,0.2,0.3c0.1,0.1,0.3,0.3,0.5,0.3 c0.2,0.1,0.4,0.2,0.6,0.2h0.4c0.2,0,0.3-0.1,0.5-0.2c0.7,1,2.1,1.2,3.1,0.5c0.1,0,0.1-0.1,0.2-0.1c1,0.7,2.3,0.5,3-0.5 c0.2,0.1,0.3,0.2,0.5,0.2h0.4c0.2,0,0.4-0.1,0.6-0.2c0.2-0.1,0.3-0.2,0.4-0.3c0.1-0.1,0.1-0.2,0.2-0.3l0.4,0.1h0.4 c0.2,0,0.4-0.1,0.6-0.2c0.2-0.1,0.4-0.2,0.5-0.4c0.2-0.3,0.3-0.6,0.4-0.9h0.1h0.4c0.2,0,0.4,0,0.6-0.1c0.2,0,0.3-0.1,0.5-0.3 c0.1-0.1,0.3-0.3,0.3-0.5c0.1-0.2,0.1-0.4,0.1-0.5v-0.1c0-0.3-0.1-0.5-0.2-0.7h0.1c0.2,0,0.3,0,0.5-0.1c0.3-0.1,0.5-0.3,0.7-0.6 c0.1-0.1,0.1-0.2,0.1-0.3c0.1,0,0.3,0,0.4-0.1c0.3-0.1,0.6-0.3,0.8-0.6l0.1-0.3C73.9,40.3,74,40,73.9,39.7z"/><path fill="#a3754f" d="M71.3,39.4H71c-0.8,0-1,0.3-0.9-0.2c0.1-0.8,0-4.2,0-4.3c0-3.5-3.6-6.3-8.1-6.4h-0.2 c-4.5,0.2-8.1,3-8.1,6.4c0,0.2-0.1,3.5-0.1,4.3c0,0.5-0.2,0.2-0.9,0.2h-0.3c-0.8,0-1.4,0.5-1.6,1.2c0.3,1.4,0.6,2.7,1.1,4 c0.3,0.6,0.9,0.7,1.4,1.1c0.2,0.2,0.4,0.5,0.5,0.8c0.4,1.2,1.1,2.3,2.1,3.2c0.5,0.4,3.5,3.7,6.1,3.5s5.6-3.1,6.1-3.5 c1-0.8,1.7-1.9,2-3.2c0-0.3,0.2-0.6,0.4-0.8c0.5-0.4,1.1-0.5,1.4-1.1c0.5-1.3,0.8-2.6,1.1-4C72.7,39.9,72.1,39.4,71.3,39.4z"/><path fill="#512c2b" d="M61.9 44.9c.5 0 1-.2 1.4-.6 0 0 0-.1 0-.1 0 0 0 0 0 0l0 0c0 0-.1 0-.1 0 0 0 0 0 0 0-.7.7-1.8.7-2.5 0 0 0 0 0-.1 0h-.1c0 0 0 .1 0 .1 0 0 0 0 0 0C60.9 44.7 61.4 44.9 61.9 44.9zM60.2 37.7l.3-.6c-1.5-.3-3-.3-4.4.1l.4.6C57.7 37.5 59 37.4 60.2 37.7zM67.3 37.7l.3-.6c-1.5-.3-3-.3-4.4.1l.4.6C64.9 37.5 66.1 37.4 67.3 37.7zM58.2 38.6c-.4 0-.7.2-.8.6h.1c.3 0 .5.3.5.6 0 .3-.2.5-.5.5-.1 0-.2 0-.3-.1.1.5.4.9.9.9.7-.2 1.1-.9.9-1.5C59 39.1 58.6 38.8 58.2 38.6L58.2 38.6zM65.6 38.6c-.3 0-.6.2-.7.4 0 0 .1 0 .1-.1.3 0 .5.3.5.6 0 .3-.2.5-.5.6-.2 0-.3-.1-.4-.2-.1.5.2 1.1.7 1.2.5.1 1.1-.2 1.2-.7 0-.2 0-.3 0-.5C66.6 39.3 66.2 38.7 65.6 38.6zM66 46.3c0 0 0-.1 0-.1 0 0 0 0 0 0l0 0c0 0-.1 0-.1 0-1.2.8-2.6 1.2-4 1.1-1.4.1-2.8-.3-4-1.1 0 0 0 0-.1 0 0 0-.1 0-.1 0 0 0 0 .1 0 .1 0 0 0 0 0 0C60.2 48 63.5 48 66 46.3L66 46.3zM54.2 36.6c.4-1.7 1-3.3 1.8-4.8-.3-.4-.7-.5-1.2-.4-1.1 2-1.7 4.3-1.6 6.6 0 1 .2 2.1.5 3.1C54 39.6 53.9 38.1 54.2 36.6zM69.6 36.6c-.4-1.7-1-3.3-1.8-4.8.3-.4.8-.5 1.2-.4 1.1 2 1.7 4.3 1.6 6.5 0 1-.2 2.1-.5 3.1C69.8 39.6 69.9 38.1 69.6 36.6zM63 50.4c0 0 .1 0 .1-.1s0-.1-.1-.1h-2c0 0-.1 0-.1.1s0 .1.1.1H63z"/><path fill="#472b29" d="M62.7,72.9c-6.9,0-11.4-1.4-16.7-5c-0.2-0.1-0.2-0.3-0.2-0.5c0-0.1,0-0.4,0-0.8 c0-1.7,0.1-5.2,0.5-6.6c0.3-1.5,1.3-2.8,2.7-3.5c0.5-0.3,1.2-0.6,1.8-0.7l5.5-2c0.4-0.1,0.6-0.3,0.7-0.6c0-0.2,0.1-0.8,0.1-1.4 c-0.5-0.4-1.1-0.8-1.6-1.2c-1.1-0.9-1.8-2.1-2.2-3.5c0-0.3-0.1-0.4-0.3-0.6c-0.1-0.1-0.3-0.2-0.5-0.3c-0.4-0.2-0.8-0.4-1.1-1 c-0.6-1.4-1-2.8-1.1-4.3c0-0.1,0-0.1,0-0.2c0.3-0.9,1.1-1.6,2.1-1.6h0.3c0.2,0,0.3,0,0.4,0c0-0.9,0-2.8,0.1-3.7 c0-0.2,0-0.4,0-0.4c0-3.8,3.8-6.8,8.6-7l0.2,0c4.8,0.2,8.6,3.3,8.6,7l0,0.3c0,1.3,0,3,0,3.8c0.1,0,0.3,0,0.4,0h0.4 c1,0,1.8,0.7,2.1,1.6c0,0.1,0,0.1,0,0.2c-0.1,1.5-0.6,2.9-1.2,4.2c-0.3,0.6-0.7,0.8-1.1,1c-0.1,0.1-0.3,0.2-0.5,0.3 c-0.1,0.1-0.2,0.3-0.2,0.5c-0.4,1.4-1.1,2.6-2.2,3.5L68,50.7c-0.3,0.3-0.9,0.7-1.5,1.1c0,0.5,0.1,0.9,0.2,1.4 c0.1,0.2,0.3,0.4,0.6,0.5c0.3,0.1,5.8,2.1,6.8,2.6l0.7,0.3c1.6,0.4,2.8,1.9,2.9,3.6c0,0,0,0,0,0c0,0,0.3,5.4,0.4,8.7 c0,0.2-0.1,0.4-0.3,0.5c-3.9,1.9-8.1,3.1-12.5,3.6C64.5,72.9,63.6,72.9,62.7,72.9z M46.7,67.2c5.7,3.8,10.4,5,18.6,4.6 c4.1-0.4,8.1-1.5,11.8-3.3c-0.2-3.3-0.4-8.2-0.4-8.4c-0.1-1.3-1-2.4-2.2-2.7l-0.8-0.3c-1-0.4-6.6-2.5-6.7-2.5 c-0.5-0.1-1-0.5-1.3-1.1c-0.2-0.7-0.3-1.4-0.2-2c0-0.1,0.1-0.3,0.2-0.4c0.7-0.5,1.3-1,1.6-1.2l0.3-0.2c0.8-0.8,1.5-1.8,1.8-3 c0-0.4,0.3-0.8,0.6-1.1c0.2-0.2,0.4-0.3,0.6-0.4c0.3-0.2,0.5-0.3,0.7-0.6c0.6-1.2,0.9-2.4,1.1-3.8c-0.2-0.5-0.6-0.8-1.1-0.8H71 c-0.2,0-0.4,0-0.5,0c-0.2,0-0.5,0.1-0.7-0.1c-0.2-0.2-0.2-0.6-0.2-0.7c0.1-0.7,0-3.2,0-4l0-0.3c0-3.2-3.4-5.9-7.6-6l-0.2,0 c-4.3,0.2-7.6,2.8-7.6,6c0,0,0,0.2,0,0.4c0,0.9-0.1,3.3,0,3.9c0,0.2,0,0.5-0.2,0.7c-0.2,0.2-0.5,0.1-0.7,0.1c-0.1,0-0.3,0-0.5,0 l-0.3,0c-0.5,0-0.9,0.3-1.1,0.8c0.1,1.3,0.5,2.6,1,3.8c0.1,0.3,0.4,0.4,0.7,0.6c0.2,0.1,0.4,0.2,0.6,0.4c0.4,0.3,0.6,0.7,0.6,1.2 c0.3,1.1,1,2.1,1.9,2.9c0.5,0.5,1.1,0.9,1.7,1.3c0.1,0.1,0.2,0.2,0.2,0.4c0,0.7-0.1,1.6-0.2,2c-0.2,0.7-0.7,1.1-1.4,1.3l-5.4,2 c-0.6,0.2-1.1,0.4-1.6,0.7c-1.2,0.6-2,1.6-2.2,2.9c-0.4,1.3-0.4,4.8-0.4,6.3C46.7,66.9,46.7,67.1,46.7,67.2z"/><path fill="#895d3d" d="M71.4 43.2l-.6-.1.1-1.3-.7.3-.2-.5 1.1-.5c.1 0 .2 0 .3 0 .1.1.1.2.1.3L71.4 43.2zM52.5 42.9l-.2-1.8c0-.1 0-.2.1-.3.1-.1.2-.1.3 0l1.1.5-.2.5L53 41.6l.1 1.3L52.5 42.9z"/><path fill="#472b29" d="M53.6 46.4C53.6 46.4 53.6 46.4 53.6 46.4c-.1 0-.2-.1-.2-.2l.1-6.7c0-.1.1-.2.2-.2 0 0 0 0 0 0 .1 0 .2.1.2.2l-.1 6.7C53.8 46.3 53.7 46.4 53.6 46.4zM70.2 46.4c-.1 0-.2-.1-.2-.2l-.1-6.7c0-.1.1-.2.2-.2 0 0 0 0 0 0 .1 0 .2.1.2.2l.1 6.7C70.4 46.3 70.3 46.4 70.2 46.4 70.2 46.4 70.2 46.4 70.2 46.4z"/><path fill="#512c2b" d="M70.7,37c0.4-3.7-0.7-5.7-1.5-6.8c-2.1-1.7-4.7-2.5-7.4-2.5c-2.2,0-4.5,0.6-6.4,1.8 c-2.1,1.9-3,4.7-2.4,7.5c0.1,1.6,0.4,3.2,0.8,4.8c0.2-1.5,0.2-4.7,0.5-6.1c0.2-1,0.6-2,1-3c2.1-2.3,10.9-2.2,13.2,0 c0.4,1,0.8,2,1,3c0.3,1.4,0.3,4.7,0.6,6.1C70.4,40.2,70.6,38.6,70.7,37z"/><path fill="#e0a825" d="M60.9 39.1c-1.5-1.9-7.3-.5-7.3-.5.1.4.2.8.3 1.2.4 0 .5 1 .5 1.3.2 1.7 1.3 3 3.7 2.9 1.6 0 3-1.3 3-3C61.2 40.4 61.2 39.7 60.9 39.1zM60.6 41.2c0 1.4-1.1 2.5-2.5 2.5 0 0 0 0 0 0h-.5c-2.4 0-2.8-2.1-2.8-3.4 0-.8.5-1.4 1.3-1.5.5 0 1-.1 1.5 0 1.8 0 2.5.4 2.8.8C60.6 40 60.7 40.6 60.6 41.2zM62.6 41.1c0 1.7 1.4 3 3 3 0 0 0 0 0 0 2.4.1 3.5-1.2 3.7-2.9 0-.3.1-1.3.5-1.3.1-.4.2-.8.3-1.2 0 0-5.8-1.3-7.3.5C62.6 39.7 62.5 40.4 62.6 41.1zM63.5 39.5c.2-.3 1-.8 2.8-.8.5 0 1 0 1.5 0 .8.1 1.3.7 1.3 1.5 0 1.3-.4 3.4-2.8 3.4h-.5c-1.4 0-2.5-1.1-2.6-2.4 0 0 0 0 0 0C63.1 40.6 63.2 40 63.5 39.5z"/><path fill="#e0a825" d="M62.9,40.6c-0.3-0.2-0.7-0.3-1.1-0.3c-0.4,0-0.7,0.1-1,0.3c-0.1-0.3-0.2-0.6-0.3-0.9h2.7 C63.1,40,63,40.3,62.9,40.6z"/><path fill="#472b29" d="M62,53.5c-1.7,0-4.5-2-4.6-2.1c-0.1-0.1-0.1-0.2-0.1-0.3c0.1-0.1,0.2-0.1,0.3-0.1 c0.8,0.6,3.2,2.2,4.4,2c1.4-0.4,2.7-1,3.9-1.8c0.1-0.1,0.3-0.1,0.3,0.1c0.1,0.1,0.1,0.3-0.1,0.3c-1.2,0.9-2.6,1.5-4.1,1.9 C62.1,53.5,62,53.5,62,53.5z"/></svg>