<svg xmlns="http://www.w3.org/2000/svg" xmlns:xlink="http://www.w3.org/1999/xlink" viewBox="0 0 100 100"><path fill="#f1bc19" d="M77 12A1 1 0 1 0 77 14A1 1 0 1 0 77 12Z"/><path fill="#e4e4f9" d="M50 13A37 37 0 1 0 50 87A37 37 0 1 0 50 13Z"/><path fill="#f1bc19" d="M83 11A4 4 0 1 0 83 19A4 4 0 1 0 83 11Z"/><path fill="#8889b9" d="M87 22A2 2 0 1 0 87 26A2 2 0 1 0 87 22Z"/><path fill="#fbcd59" d="M81 74A2 2 0 1 0 81 78 2 2 0 1 0 81 74zM15 59A4 4 0 1 0 15 67 4 4 0 1 0 15 59z"/><path fill="#8889b9" d="M25 85A2 2 0 1 0 25 89A2 2 0 1 0 25 85Z"/><path fill="#fff" d="M79.5 32A1.5 1.5 0 1 0 79.5 35A1.5 1.5 0 1 0 79.5 32Z"/><g><path fill="#ef9922" d="M45.487,72.53l2.383,0.142c1.639,0.097,3.064-1.307,3.166-3.121l0.87-21.843"/><path fill="#472b29" d="M48.03,73.411c-0.068,0-0.135-0.002-0.204-0.005l-2.383-0.142 c-0.405-0.025-0.714-0.372-0.69-0.779c0.024-0.405,0.368-0.698,0.779-0.69l2.383,0.142c0.522,0.041,1.075-0.162,1.509-0.549 c0.517-0.461,0.838-1.146,0.879-1.879l0.87-21.831c0.015-0.395,0.342-0.706,0.734-0.706c0.009,0,0.019,0,0.03,0.001 c0.405,0.016,0.721,0.358,0.705,0.764l-0.87,21.842c-0.064,1.133-0.563,2.188-1.37,2.907 C49.727,73.087,48.892,73.411,48.03,73.411z"/><path fill="#fbcd59" d="M52.489,42.726l-4.177-11.229c-0.877-2.359-3.876-3.099-5.751-1.42l-8.924,7.993 c-0.535,0.479-0.913,1.107-1.084,1.803L26.077,66.1c-0.452,1.83,0.825,3.735,2.838,4.232l12.736,3.145 c2.013,0.497,4.03-0.594,4.482-2.424l6.476-26.226C52.781,44.131,52.739,43.399,52.489,42.726z M43.29,39.48 c-1.292-0.319-2.081-1.625-1.762-2.918c0.319-1.292,1.625-2.081,2.918-1.762c1.292,0.319,2.081,1.625,1.762,2.918 C45.889,39.01,44.582,39.799,43.29,39.48z"/><path fill="#472b29" d="M42.636,74.298c-0.379,0-0.766-0.046-1.153-0.142l-12.735-3.145c-2.393-0.591-3.896-2.87-3.35-5.08 l6.476-26.227c0.207-0.836,0.655-1.581,1.298-2.155l8.924-7.994c1.053-0.944,2.504-1.306,3.884-0.962 c1.379,0.341,2.496,1.335,2.989,2.659l4.177,11.229c0.301,0.809,0.351,1.678,0.145,2.513l-6.477,26.227 C46.354,73.072,44.601,74.297,42.636,74.298z M44.93,29.865c-0.697,0-1.364,0.253-1.901,0.733l-8.924,7.994 c-0.432,0.387-0.733,0.887-0.872,1.448l-6.476,26.227c-0.36,1.461,0.683,2.979,2.326,3.385l12.735,3.145 c1.64,0.411,3.274-0.451,3.635-1.912l6.477-26.227c0.139-0.561,0.105-1.145-0.098-1.688l-4.177-11.229 c-0.336-0.903-1.069-1.556-2.013-1.788C45.404,29.894,45.165,29.865,44.93,29.865z M43.874,40.251 c-0.251,0-0.503-0.03-0.752-0.092c-0.807-0.199-1.487-0.7-1.916-1.411c-0.43-0.711-0.557-1.547-0.357-2.354 c0.198-0.807,0.7-1.487,1.411-1.917s1.549-0.557,2.353-0.357c1.665,0.411,2.686,2.101,2.275,3.765 c-0.199,0.808-0.701,1.488-1.412,1.917C44.984,40.099,44.434,40.251,43.874,40.251z M43.865,35.429 c-0.308,0-0.611,0.084-0.882,0.247c-0.391,0.236-0.666,0.61-0.775,1.054c-0.109,0.444-0.04,0.903,0.196,1.295 c0.236,0.391,0.61,0.666,1.053,0.775h0.001c0.917,0.227,1.844-0.334,2.07-1.25c0.226-0.915-0.336-1.845-1.251-2.07 C44.141,35.445,44.003,35.429,43.865,35.429z"/><path fill="#472b29" d="M45.647,37.109c-1.918,0-3.717-0.733-5.089-2.081c-1.376-1.352-2.139-3.153-2.147-5.074 c-0.009-1.915,0.734-3.717,2.093-5.077c2.802-2.805,7.391-2.824,10.226-0.038c2.331,2.29,2.821,5.855,1.192,8.67 c-0.147,0.251-0.472,0.335-0.717,0.192c-0.251-0.145-0.337-0.467-0.192-0.717c1.389-2.4,0.969-5.442-1.02-7.396 c-2.425-2.382-6.348-2.366-8.747,0.032c-1.158,1.159-1.792,2.697-1.785,4.329c0.007,1.638,0.659,3.176,1.833,4.33 c1.221,1.199,2.877,1.829,4.551,1.777c0.006,0,0.011,0,0.016,0c0.283,0,0.516,0.225,0.525,0.509 c0.008,0.29-0.22,0.532-0.509,0.542C45.802,37.108,45.724,37.109,45.647,37.109z"/><path fill="#fdfcef" d="M44.988 52.667L46.669 53.082 43.037 67.79 29.667 64.488 33.299 49.78 40.421 51.539"/><path fill="#472b29" d="M43.038,68.184c-0.031,0-0.063-0.004-0.094-0.011L29.572,64.87 c-0.102-0.026-0.189-0.089-0.243-0.178c-0.053-0.09-0.07-0.197-0.045-0.299l3.632-14.708c0.026-0.102,0.089-0.189,0.178-0.243 c0.091-0.053,0.2-0.069,0.299-0.045l7.122,1.759c0.211,0.052,0.341,0.266,0.288,0.477c-0.051,0.21-0.26,0.337-0.477,0.288 l-6.739-1.665L30.143,64.2l12.606,3.113l3.444-13.943l-1.3-0.321c-0.211-0.052-0.341-0.266-0.288-0.477 c0.052-0.21,0.264-0.334,0.477-0.288l1.682,0.415c0.102,0.026,0.189,0.089,0.243,0.178c0.053,0.09,0.07,0.197,0.045,0.299 L43.42,67.884C43.376,68.064,43.215,68.184,43.038,68.184z"/><path fill="#fdfcef" d="M41.546 51.817L42.056 51.943"/><path fill="#472b29" d="M42.056,52.336c-0.031,0-0.063-0.004-0.094-0.011l-0.51-0.125 c-0.211-0.052-0.34-0.266-0.288-0.477c0.051-0.21,0.262-0.335,0.477-0.288l0.51,0.125c0.211,0.052,0.34,0.266,0.288,0.477 C42.394,52.216,42.233,52.336,42.056,52.336z"/><path fill="#fdfcef" d="M34.479 53.618L43.838 55.929"/><path fill="#472b29" d="M43.839,56.192c-0.021,0-0.042-0.002-0.063-0.007l-9.36-2.311 c-0.142-0.035-0.227-0.177-0.193-0.318c0.035-0.141,0.18-0.225,0.318-0.193l9.36,2.311c0.142,0.035,0.227,0.177,0.193,0.318 C44.064,56.112,43.957,56.192,43.839,56.192z"/><path fill="#fdfcef" d="M33.818 56.292L43.178 58.604"/><path fill="#472b29" d="M43.178,58.866c-0.021,0-0.042-0.002-0.063-0.007l-9.359-2.311 c-0.142-0.035-0.227-0.177-0.193-0.318c0.035-0.142,0.182-0.227,0.318-0.193l9.359,2.311c0.142,0.035,0.227,0.177,0.193,0.318 C43.404,58.786,43.296,58.866,43.178,58.866z"/><path fill="#fdfcef" d="M33.158 58.967L42.518 61.278"/><path fill="#472b29" d="M42.517,61.541c-0.021,0-0.042-0.002-0.063-0.007l-9.359-2.311 c-0.142-0.035-0.227-0.177-0.193-0.318c0.035-0.141,0.182-0.228,0.318-0.193l9.359,2.311c0.142,0.035,0.227,0.177,0.193,0.318 C42.743,61.461,42.635,61.541,42.517,61.541z"/><path fill="#fdfcef" d="M32.498 61.641L41.857 63.952"/><path fill="#472b29" d="M41.857 64.215c-.021 0-.042-.002-.063-.007l-9.359-2.311c-.142-.035-.227-.177-.193-.318.035-.141.181-.227.318-.193l9.359 2.311c.142.035.227.177.193.318C42.083 64.135 41.975 64.215 41.857 64.215zM46.184 71.405c-.048 0-.094-.027-.118-.073-.032-.065-.005-.144.059-.176l4.361-2.177c.065-.032.144-.005.176.059.032.065.005.144-.059.176l-4.361 2.177C46.224 71.401 46.203 71.405 46.184 71.405zM46.519 70.047c-.048 0-.094-.027-.118-.073-.032-.065-.005-.144.059-.176l4.36-2.177c.065-.032.144-.005.176.059.032.065.005.144-.059.176l-4.36 2.177C46.559 70.042 46.539 70.047 46.519 70.047z"/><g><path fill="#472b29" d="M46.855,68.688c-0.048,0-0.094-0.027-0.118-0.073c-0.032-0.065-0.005-0.144,0.059-0.176l4.36-2.176 c0.065-0.032,0.144-0.005,0.176,0.059c0.032,0.065,0.005,0.144-0.059,0.176l-4.36,2.176 C46.895,68.684,46.874,68.688,46.855,68.688z"/></g><g><path fill="#472b29" d="M47.19,67.331c-0.048,0-0.094-0.027-0.118-0.073c-0.032-0.065-0.005-0.144,0.059-0.176l4.36-2.177 c0.066-0.031,0.144-0.005,0.176,0.059c0.032,0.065,0.005,0.144-0.059,0.176l-4.36,2.177C47.23,67.327,47.209,67.331,47.19,67.331z"/></g><g><path fill="#fdfcef" d="M48.874,52.99c-0.003,3.316,2.045,6.453,5.564,8.526l0,0c0,1.791-0.522,3.774-1.175,5.037 c-0.231,0.448,0.131,0.97,0.632,0.915c3.248-0.357,6.326-1.961,7.962-3.565h1.855c8.195,0,14.838-4.886,14.838-10.913 s-6.643-10.913-14.838-10.913S48.874,46.962,48.874,52.99"/><path fill="#472b29" d="M53.826,67.972c-0.372,0-0.722-0.182-0.935-0.492c-0.235-0.343-0.264-0.786-0.072-1.156 c0.528-1.023,1.062-2.79,1.115-4.527c-3.541-2.175-5.563-5.371-5.561-8.807c0-6.293,6.881-11.413,15.338-11.413 s15.338,5.12,15.338,11.413c0,6.294-6.881,11.414-15.338,11.414h-1.654c-1.642,1.529-4.729,3.189-8.107,3.562 C53.908,67.97,53.867,67.972,53.826,67.972z M63.712,42.576c-7.906,0-14.338,4.671-14.338,10.413l0,0 c-0.003,3.153,1.936,6.104,5.318,8.096l0.246,0.145v0.286c0,1.752-0.483,3.819-1.23,5.267c-0.029,0.057-0.012,0.103,0.008,0.132 c0.021,0.03,0.062,0.069,0.125,0.057c3.247-0.357,6.19-1.978,7.667-3.425l0.146-0.143h2.059c7.906,0,14.338-4.672,14.338-10.414 S71.618,42.576,63.712,42.576z"/></g><g><path fill="#ee3e54" d="M72 55A6 6 0 1 0 72 67A6 6 0 1 0 72 55Z"/><path fill="#472b29" d="M72,67.5c-3.584,0-6.5-2.916-6.5-6.5s2.916-6.5,6.5-6.5s6.5,2.916,6.5,6.5S75.584,67.5,72,67.5z M72,55.5c-3.032,0-5.5,2.468-5.5,5.5s2.468,5.5,5.5,5.5s5.5-2.468,5.5-5.5S75.032,55.5,72,55.5z"/></g><g><path fill="#fdfcef" d="M74.172 61.151c-.23-.228-.505-.344-.819-.344-.318 0-.595.116-.824.345-.23.229-.346.507-.346.824 0 .314.114.589.341.819.227.229.506.345.829.345.32 0 .597-.117.823-.347.227-.23.341-.505.341-.817C74.517 61.659 74.401 61.382 74.172 61.151zM73.775 61.976c0 .115-.041.211-.125.296-.169.171-.436.165-.599 0-.084-.085-.125-.182-.125-.296 0-.118.042-.216.127-.302.083-.084.182-.126.301-.126.114 0 .211.042.295.126C73.734 61.759 73.775 61.858 73.775 61.976zM71.406 59.323c0-.32-.116-.597-.346-.825-.23-.227-.506-.342-.823-.342-.316 0-.592.115-.82.342-.229.228-.345.506-.345.825 0 .314.114.59.341.82.227.231.505.347.824.347.322 0 .601-.116.828-.347C71.292 59.913 71.406 59.637 71.406 59.323zM70.664 59.323c0 .117-.041.214-.124.3-.167.166-.429.17-.6 0-.084-.085-.125-.183-.125-.3 0-.118.041-.216.124-.301.084-.083.182-.124.299-.124.118 0 .216.041.302.124C70.623 59.108 70.664 59.205 70.664 59.323z"/><path fill="#fdfcef" d="M73.707,58.208c-0.018-0.032-0.053-0.051-0.09-0.051h-1.855c-0.058,0-0.105,0.046-0.105,0.105 v0.532c0,0.058,0.046,0.105,0.105,0.105h0.88l-2.299,4.085c-0.018,0.032-0.018,0.072,0.001,0.105 c0.018,0.032,0.053,0.051,0.09,0.051h0.532c0.038,0,0.073-0.021,0.092-0.053l2.65-4.773C73.726,58.28,73.726,58.24,73.707,58.208 z"/></g><g><path fill="#472b29" d="M64.5,48.75h-8c-0.138,0-0.25-0.112-0.25-0.25s0.112-0.25,0.25-0.25h8 c0.138,0,0.25,0.112,0.25,0.25S64.638,48.75,64.5,48.75z"/></g><g><path fill="#472b29" d="M62.5,51.75h-8c-0.138,0-0.25-0.112-0.25-0.25s0.112-0.25,0.25-0.25h8 c0.138,0,0.25,0.112,0.25,0.25S62.638,51.75,62.5,51.75z"/></g><g><path fill="#472b29" d="M65.5,54.75h-11c-0.138,0-0.25-0.112-0.25-0.25s0.112-0.25,0.25-0.25h11 c0.138,0,0.25,0.112,0.25,0.25S65.638,54.75,65.5,54.75z"/></g><g><path fill="#472b29" d="M63.5,57.75h-7c-0.138,0-0.25-0.112-0.25-0.25s0.112-0.25,0.25-0.25h7 c0.138,0,0.25,0.112,0.25,0.25S63.638,57.75,63.5,57.75z"/></g><g><path fill="#472b29" d="M73.5,51.75h-8c-0.138,0-0.25-0.112-0.25-0.25s0.112-0.25,0.25-0.25h8 c0.138,0,0.25,0.112,0.25,0.25S73.638,51.75,73.5,51.75z"/></g><g><path fill="#472b29" d="M71.5,48.75h-4c-0.138,0-0.25-0.112-0.25-0.25s0.112-0.25,0.25-0.25h4 c0.138,0,0.25,0.112,0.25,0.25S71.638,48.75,71.5,48.75z"/></g></g></svg>