<svg xmlns="http://www.w3.org/2000/svg" xmlns:xlink="http://www.w3.org/1999/xlink" viewBox="0 0 100 100"><path fill="#f1bc19" d="M77 12A1 1 0 1 0 77 14A1 1 0 1 0 77 12Z"/><path fill="#e4e4f9" d="M50 13A37 37 0 1 0 50 87A37 37 0 1 0 50 13Z"/><path fill="#f1bc19" d="M83 11A4 4 0 1 0 83 19A4 4 0 1 0 83 11Z"/><path fill="#8889b9" d="M87 22A2 2 0 1 0 87 26A2 2 0 1 0 87 22Z"/><path fill="#fbcd59" d="M81 74A2 2 0 1 0 81 78 2 2 0 1 0 81 74zM15 59A4 4 0 1 0 15 67 4 4 0 1 0 15 59z"/><path fill="#8889b9" d="M25 85A2 2 0 1 0 25 89A2 2 0 1 0 25 85Z"/><path fill="#fff" d="M79.5 32A1.5 1.5 0 1 0 79.5 35A1.5 1.5 0 1 0 79.5 32Z"/><path fill="#ee3e54" d="M35.447,69.3c-3.169,0-5.747-2.344-5.747-5.226V30.7h34.6v33.374c0,2.882-2.578,5.226-5.747,5.226 H35.447z"/><path fill="#472b29" d="M63.6,31.4v32.675c0,2.495-2.264,4.526-5.048,4.526H35.448c-2.783,0-5.048-2.03-5.048-4.526V31.4 H63.6 M65,30H29v34.074C29,67.334,31.902,70,35.448,70h23.105C62.099,70,65,67.333,65,64.074V30L65,30z"/><path fill="#f26b79" d="M30.436 31.457H63.583V34.538000000000004H30.436z"/><path fill="#f4516d" d="M30.333,61.315l0.005,2.037c0,2.952,2.723,5.148,6.057,5.148H58.12c3.335,0,6.059-2.162,6.014-5.169 l0.003-2.07L30.333,61.315z"/><path fill="#aa1737" d="M54.96 36.975A2 2 0 1 0 54.96 40.975A2 2 0 1 0 54.96 36.975Z"/><path fill="#472b29" d="M54.96,41.476c-1.379,0-2.5-1.121-2.5-2.5s1.121-2.5,2.5-2.5s2.5,1.121,2.5,2.5 S56.339,41.476,54.96,41.476z M54.96,37.476c-0.827,0-1.5,0.673-1.5,1.5s0.673,1.5,1.5,1.5s1.5-0.673,1.5-1.5 S55.787,37.476,54.96,37.476z"/><path fill="#aa1737" d="M38.96 36.975A2 2 0 1 0 38.96 40.975A2 2 0 1 0 38.96 36.975Z"/><path fill="#472b29" d="M38.96,41.476c-1.379,0-2.5-1.121-2.5-2.5s1.121-2.5,2.5-2.5s2.5,1.121,2.5,2.5 S40.339,41.476,38.96,41.476z M38.96,37.476c-0.827,0-1.5,0.673-1.5,1.5s0.673,1.5,1.5,1.5s1.5-0.673,1.5-1.5 S39.787,37.476,38.96,37.476z"/><g><path fill="#472b29" d="M36.076,69.859c-0.018,0-0.035-0.003-0.051-0.01c-0.071-0.028-0.106-0.111-0.078-0.182l3.203-8.116 c0.029-0.071,0.113-0.106,0.182-0.079c0.071,0.028,0.106,0.111,0.078,0.182l-3.203,8.116 C36.184,69.825,36.132,69.859,36.076,69.859z"/></g><g><path fill="#472b29" d="M37.468,69.859c-0.018,0-0.035-0.003-0.051-0.01c-0.071-0.028-0.106-0.111-0.078-0.182l3.203-8.116 c0.029-0.071,0.111-0.106,0.182-0.079c0.071,0.028,0.106,0.111,0.078,0.182l-3.203,8.116 C37.577,69.825,37.524,69.859,37.468,69.859z"/></g><g><path fill="#472b29" d="M38.861,69.859c-0.018,0-0.035-0.003-0.051-0.01c-0.071-0.028-0.106-0.111-0.078-0.182l3.203-8.116 c0.029-0.071,0.111-0.106,0.182-0.079c0.071,0.028,0.106,0.111,0.078,0.182l-3.203,8.116 C38.969,69.825,38.917,69.859,38.861,69.859z"/></g><g><path fill="#472b29" d="M40.254,69.859c-0.018,0-0.035-0.003-0.051-0.01c-0.071-0.028-0.106-0.111-0.078-0.182l3.203-8.116 c0.029-0.071,0.111-0.106,0.182-0.079c0.071,0.028,0.106,0.111,0.078,0.182l-3.203,8.116 C40.362,69.825,40.309,69.859,40.254,69.859z"/></g><g><path fill="#472b29" d="M41.646,69.859c-0.018,0-0.035-0.003-0.051-0.01c-0.071-0.028-0.106-0.111-0.078-0.182l3.203-8.116 c0.029-0.071,0.113-0.106,0.182-0.079c0.071,0.028,0.106,0.111,0.078,0.182l-3.203,8.116 C41.753,69.825,41.701,69.859,41.646,69.859z"/></g><g><path fill="#fbcd59" d="M56.25 60.18999999999999A7.566 7.624 0 1 0 56.25 75.43799999999999A7.566 7.624 0 1 0 56.25 60.18999999999999Z"/><path fill="#472b29" d="M56.25,76c-4.48,0-8.124-3.672-8.124-8.185s3.644-8.186,8.124-8.186s8.124,3.672,8.124,8.186 S60.73,76,56.25,76z M56.25,60.751c-3.865,0-7.01,3.168-7.01,7.064c0,3.894,3.144,7.063,7.01,7.063s7.01-3.168,7.01-7.063 C63.26,63.919,60.116,60.751,56.25,60.751z"/><path fill="#f1bc19" d="M56.25 62.827999999999996A4.948 4.986 0 1 0 56.25 72.8A4.948 4.986 0 1 0 56.25 62.827999999999996Z"/><path fill="#472b29" d="M56.25,73.08c-2.881,0-5.225-2.362-5.225-5.265c0-2.904,2.344-5.266,5.225-5.266 c2.881,0,5.225,2.362,5.225,5.266C61.476,70.718,59.132,73.08,56.25,73.08z M56.25,63.109c-2.575,0-4.668,2.111-4.668,4.705 c0,2.594,2.095,4.704,4.668,4.704c2.574,0,4.668-2.111,4.668-4.704C60.919,65.219,58.825,63.109,56.25,63.109z"/><g><path fill="#fbcd59" d="M68.877 53.785999999999994A7.566 7.624 0 1 0 68.877 69.03399999999999A7.566 7.624 0 1 0 68.877 53.785999999999994Z"/><path fill="#472b29" d="M68.876,69.596c-4.48,0-8.124-3.672-8.124-8.186c0-4.514,3.644-8.185,8.124-8.185 c4.48,0,8.124,3.672,8.124,8.185S73.356,69.596,68.876,69.596z M68.876,54.348c-3.865,0-7.01,3.168-7.01,7.063 c0,3.896,3.144,7.064,7.01,7.064c3.866,0,7.01-3.168,7.01-7.064C75.886,57.516,72.742,54.348,68.876,54.348z"/></g><g><path fill="#f1bc19" d="M68.877 56.424A4.948 4.986 0 1 0 68.877 66.396A4.948 4.986 0 1 0 68.877 56.424Z"/><path fill="#472b29" d="M68.876,66.675c-2.881,0-5.225-2.362-5.225-5.265s2.344-5.265,5.225-5.265 c2.881,0,5.226,2.362,5.226,5.265C74.102,64.313,71.758,66.675,68.876,66.675z M68.876,56.705c-2.575,0-4.668,2.111-4.668,4.704 c0,2.593,2.094,4.704,4.668,4.704c2.575,0,4.669-2.111,4.669-4.704C73.545,58.816,71.451,56.705,68.876,56.705z"/></g><g><path fill="#472b29" d="M68.118,62.742c0.007,0,0.02,0.007,0.041,0.02l-0.01-0.006c0.099,0.068,0.188,0.123,0.266,0.163 c0.079,0.039,0.163,0.067,0.251,0.085v-1.605l-0.092-0.052c-0.113-0.062-0.221-0.127-0.323-0.196 c-0.103-0.07-0.195-0.145-0.276-0.227c-0.082-0.082-0.152-0.171-0.207-0.263c-0.057-0.093-0.095-0.194-0.116-0.304 c-0.013-0.055-0.021-0.107-0.023-0.155c-0.001-0.048-0.002-0.1-0.002-0.155c0-0.162,0.027-0.303,0.079-0.423 c0.053-0.12,0.126-0.223,0.218-0.308s0.202-0.152,0.328-0.202c0.126-0.049,0.265-0.083,0.414-0.1V58.87 c0-0.068,0.016-0.127,0.047-0.175s0.087-0.072,0.169-0.072h0.021c0.177,0,0.275,0.088,0.292,0.263l-0.004,0.139 c0.096,0.017,0.194,0.044,0.294,0.08c0.101,0.036,0.214,0.082,0.341,0.137l-0.014-0.01c0.058,0.02,0.103,0.046,0.136,0.077 c0.032,0.031,0.052,0.081,0.059,0.149v0.031c0,0.025-0.007,0.055-0.018,0.093c-0.012,0.038-0.03,0.074-0.053,0.109 c-0.025,0.035-0.051,0.065-0.082,0.09c-0.031,0.026-0.065,0.039-0.103,0.039c-0.031,0-0.059-0.003-0.085-0.008 c-0.026-0.004-0.056-0.02-0.089-0.044v0.004l-0.057-0.031c-0.099-0.052-0.208-0.093-0.328-0.123v1.409l0.02,0.01 c0.276,0.141,0.49,0.298,0.641,0.469c0.15,0.172,0.25,0.35,0.297,0.537c0.02,0.079,0.035,0.152,0.043,0.217 c0.009,0.065,0.013,0.132,0.013,0.201c0,0.158-0.026,0.301-0.077,0.429c-0.051,0.127-0.121,0.238-0.209,0.333 c-0.089,0.094-0.196,0.172-0.32,0.232c-0.125,0.061-0.261,0.101-0.408,0.121v0.372c0,0.068-0.013,0.127-0.041,0.175 c-0.027,0.048-0.084,0.072-0.169,0.072h-0.031c-0.086,0-0.154-0.024-0.205-0.07c-0.051-0.047-0.077-0.115-0.077-0.203v-0.346 c-0.184-0.02-0.343-0.062-0.476-0.123c-0.134-0.062-0.27-0.139-0.41-0.232c-0.038-0.03-0.064-0.061-0.077-0.088 c-0.013-0.027-0.029-0.065-0.046-0.113v-0.031c0-0.03,0.009-0.066,0.028-0.106c0.019-0.04,0.041-0.077,0.069-0.113 c0.028-0.036,0.057-0.067,0.087-0.093c0.031-0.026,0.06-0.038,0.087-0.038c0.038,0,0.071,0.011,0.1,0.034s0.057,0.045,0.085,0.07 L68.118,62.742c0.007,0.003,0.011,0.004,0.014,0.004L68.118,62.742z M68.382,60.548c0.08,0.075,0.175,0.143,0.284,0.201v-1.131 c-0.129,0.028-0.238,0.081-0.325,0.161c-0.087,0.08-0.13,0.186-0.13,0.32c0,0.02,0.001,0.044,0.002,0.067 c0.002,0.024,0.006,0.054,0.013,0.088C68.25,60.374,68.302,60.472,68.382,60.548z M69.435,61.907 c-0.068-0.084-0.15-0.157-0.246-0.219v1.285c0.119-0.048,0.219-0.122,0.3-0.222c0.08-0.1,0.12-0.217,0.12-0.35 c0-0.038-0.003-0.072-0.01-0.103c-0.007-0.031-0.013-0.064-0.02-0.099C69.551,62.089,69.503,61.993,69.435,61.907z"/></g><g><path fill="#472b29" d="M55.453,69.146c0.007,0,0.02,0.007,0.041,0.02l-0.01-0.006c0.099,0.068,0.188,0.123,0.266,0.163 c0.079,0.039,0.163,0.067,0.251,0.085v-1.605l-0.092-0.052c-0.113-0.062-0.221-0.127-0.323-0.196 c-0.102-0.07-0.195-0.145-0.276-0.227c-0.082-0.082-0.152-0.171-0.207-0.263c-0.057-0.093-0.095-0.194-0.116-0.304 c-0.013-0.055-0.021-0.107-0.023-0.155c-0.001-0.048-0.002-0.1-0.002-0.155c0-0.162,0.027-0.303,0.079-0.423 c0.053-0.12,0.126-0.223,0.218-0.308c0.092-0.084,0.202-0.152,0.328-0.202c0.126-0.049,0.265-0.083,0.414-0.1v-0.145 c0-0.068,0.016-0.127,0.047-0.175c0.031-0.048,0.087-0.072,0.169-0.072h0.021c0.177,0,0.275,0.088,0.292,0.263l-0.004,0.139 c0.096,0.017,0.194,0.044,0.294,0.08c0.101,0.036,0.214,0.082,0.341,0.137l-0.014-0.01c0.058,0.02,0.102,0.046,0.136,0.077 c0.032,0.031,0.052,0.081,0.059,0.149v0.031c0,0.025-0.007,0.055-0.018,0.093c-0.012,0.038-0.03,0.074-0.053,0.109 c-0.025,0.035-0.051,0.065-0.082,0.09c-0.031,0.026-0.065,0.039-0.102,0.039c-0.031,0-0.059-0.003-0.085-0.008 c-0.026-0.004-0.056-0.02-0.089-0.044v0.004l-0.057-0.031c-0.099-0.052-0.208-0.093-0.328-0.123v1.409l0.02,0.01 c0.276,0.141,0.49,0.298,0.641,0.469c0.15,0.172,0.25,0.35,0.297,0.537c0.02,0.079,0.035,0.152,0.043,0.217 c0.008,0.065,0.013,0.132,0.013,0.201c0,0.158-0.026,0.301-0.077,0.429c-0.051,0.127-0.121,0.238-0.209,0.333 c-0.089,0.094-0.196,0.172-0.32,0.232c-0.125,0.061-0.261,0.101-0.408,0.121v0.372c0,0.068-0.013,0.127-0.041,0.175 c-0.027,0.048-0.084,0.072-0.169,0.072h-0.031c-0.086,0-0.154-0.024-0.205-0.07c-0.051-0.046-0.077-0.115-0.077-0.203v-0.346 c-0.184-0.02-0.343-0.062-0.476-0.123c-0.134-0.062-0.27-0.139-0.41-0.232c-0.038-0.03-0.064-0.061-0.077-0.088 s-0.029-0.065-0.046-0.113v-0.031c0-0.03,0.009-0.066,0.028-0.106c0.019-0.04,0.041-0.077,0.069-0.113 c0.028-0.036,0.057-0.067,0.087-0.093c0.031-0.026,0.06-0.038,0.087-0.038c0.038,0,0.071,0.011,0.1,0.034 c0.029,0.022,0.057,0.045,0.085,0.07H55.453c0.007,0.003,0.011,0.004,0.014,0.004L55.453,69.146z M55.717,66.951 c0.08,0.075,0.175,0.143,0.284,0.201v-1.131c-0.129,0.028-0.238,0.081-0.325,0.161c-0.087,0.08-0.13,0.186-0.13,0.32 c0,0.02,0.001,0.044,0.002,0.067s0.006,0.054,0.013,0.088C55.585,66.779,55.637,66.876,55.717,66.951z M56.77,68.312 c-0.068-0.084-0.15-0.157-0.246-0.219v1.285c0.119-0.048,0.219-0.122,0.3-0.222s0.12-0.217,0.12-0.35 c0-0.038-0.003-0.072-0.01-0.103c-0.007-0.031-0.013-0.064-0.02-0.099C56.886,68.493,56.838,68.396,56.77,68.312z"/></g></g><g><path fill="#472b29" d="M55,39.5c-0.276,0-0.5-0.224-0.5-0.5v-7.836c0-3.675-3.364-6.664-7.5-6.664s-7.5,2.989-7.5,6.664V39 c0,0.276-0.224,0.5-0.5,0.5s-0.5-0.224-0.5-0.5v-7.836c0-4.226,3.813-7.664,8.5-7.664s8.5,3.438,8.5,7.664V39 C55.5,39.276,55.276,39.5,55,39.5z"/></g><g><path fill="#472b29" d="M58.5,35h-29c-0.276,0-0.5-0.224-0.5-0.5s0.224-0.5,0.5-0.5h29c0.276,0,0.5,0.224,0.5,0.5 S58.776,35,58.5,35z"/></g><g><path fill="#472b29" d="M51.5,62h-18c-0.276,0-0.5-0.224-0.5-0.5s0.224-0.5,0.5-0.5h18c0.276,0,0.5,0.224,0.5,0.5 S51.776,62,51.5,62z"/></g><g><path fill="#472b29" d="M64.5,35h-4c-0.276,0-0.5-0.224-0.5-0.5s0.224-0.5,0.5-0.5h4c0.276,0,0.5,0.224,0.5,0.5 S64.776,35,64.5,35z"/></g></svg>