<svg xmlns="http://www.w3.org/2000/svg" xmlns:xlink="http://www.w3.org/1999/xlink" viewBox="0 0 100 100"><path fill="#f1bc19" d="M77 12A1 1 0 1 0 77 14A1 1 0 1 0 77 12Z"/><path fill="#e6edb7" d="M50 13A37 37 0 1 0 50 87A37 37 0 1 0 50 13Z"/><path fill="#f1bc19" d="M83 11A4 4 0 1 0 83 19A4 4 0 1 0 83 11Z"/><path fill="#88ae45" d="M87 22A2 2 0 1 0 87 26A2 2 0 1 0 87 22Z"/><path fill="#fbcd59" d="M81 74A2 2 0 1 0 81 78 2 2 0 1 0 81 74zM15 59A4 4 0 1 0 15 67 4 4 0 1 0 15 59z"/><path fill="#88ae45" d="M25 85A2 2 0 1 0 25 89A2 2 0 1 0 25 85Z"/><path fill="#fff" d="M18.5 49A2.5 2.5 0 1 0 18.5 54 2.5 2.5 0 1 0 18.5 49zM79.5 32A1.5 1.5 0 1 0 79.5 35 1.5 1.5 0 1 0 79.5 32z"/><path fill="#472b29" d="M52.786,24.4c0.336,0,0.62,0.284,0.62,0.62v4.041c0,0.336-0.284,0.62-0.62,0.62 s-0.62-0.284-0.62-0.62V25.02C52.165,24.684,52.449,24.4,52.786,24.4 M52.786,23c-1.111,0-2.02,0.909-2.02,2.02v4.041 c0,1.111,0.909,2.02,2.02,2.02c1.111,0,2.02-0.909,2.02-2.02V25.02C54.806,23.909,53.897,23,52.786,23L52.786,23z"/><path fill="#fffef4" d="M35.292,57.3c-0.878,0-1.592-0.714-1.592-1.592V31.292c0-0.878,0.714-1.592,1.592-1.592h34.416 c0.878,0,1.592,0.714,1.592,1.592v24.416c0,0.878-0.714,1.592-1.592,1.592H35.292z"/><path fill="#472b29" d="M69.708,30.4c0.483,0,0.892,0.408,0.892,0.892v24.417c0,0.483-0.408,0.892-0.892,0.892H35.292 c-0.483,0-0.892-0.408-0.892-0.892V31.292c0-0.483,0.408-0.892,0.892-0.892H69.708 M69.708,29H35.292 C34.031,29,33,30.031,33,31.292v24.417C33,56.969,34.031,58,35.292,58h34.417C70.969,58,72,56.969,72,55.708V31.292 C72,30.031,70.969,29,69.708,29L69.708,29z"/><path fill="#afabd4" d="M35,31.3c-1.269,0-2.3-1.031-2.3-2.3s1.031-2.3,2.3-2.3h36c1.269,0,2.3,1.031,2.3,2.3 s-1.031,2.3-2.3,2.3H35z"/><path fill="#472b29" d="M71,27.4c0.882,0,1.6,0.718,1.6,1.6s-0.718,1.6-1.6,1.6H35c-0.882,0-1.6-0.718-1.6-1.6 s0.718-1.6,1.6-1.6H71 M71,26H35c-1.65,0-3,1.35-3,3s1.35,3,3,3h36c1.65,0,3-1.35,3-3S72.65,26,71,26L71,26z"/><path fill="#fddbbc" d="M34.5 30.7A3.8 3.8 0 1 0 34.5 38.3A3.8 3.8 0 1 0 34.5 30.7Z"/><path fill="#472b29" d="M34.5,31.4c1.709,0,3.1,1.391,3.1,3.1s-1.391,3.1-3.1,3.1s-3.1-1.391-3.1-3.1 S32.791,31.4,34.5,31.4 M34.5,30c-2.485,0-4.5,2.015-4.5,4.5s2.015,4.5,4.5,4.5s4.5-2.015,4.5-4.5S36.985,30,34.5,30L34.5,30z"/><g><path fill="#472b29" d="M53.5,64c-0.276,0-0.5-0.224-0.5-0.5v-6c0-0.276,0.224-0.5,0.5-0.5s0.5,0.224,0.5,0.5v6 C54,63.776,53.776,64,53.5,64z"/></g><g><path fill="#472b29" d="M47.229,67.444c-0.087,0-0.174-0.022-0.254-0.069c-0.238-0.141-0.317-0.446-0.177-0.685l5.557-9.426 c0.14-0.238,0.446-0.316,0.685-0.177c0.238,0.141,0.317,0.446,0.177,0.685l-5.557,9.426C47.567,67.356,47.4,67.444,47.229,67.444z"/></g><g><path fill="#472b29" d="M59.857,67.444c-0.171,0-0.338-0.088-0.431-0.246l-5.557-9.426 c-0.141-0.238-0.062-0.544,0.177-0.685c0.237-0.141,0.545-0.063,0.685,0.177l5.557,9.426c0.141,0.238,0.062,0.544-0.177,0.685 C60.031,67.422,59.944,67.444,59.857,67.444z"/></g><g><path fill="#67ba8c" d="M37.507,71.8c-1.014,0-1.853-0.824-1.871-1.838l-0.34-12.632c-0.011-0.38-0.326-0.706-0.705-0.706 c-0.19,0-0.373,0.077-0.505,0.214s-0.206,0.343-0.199,0.533l-0.429,12.58c-0.024,1.022-0.871,1.849-1.887,1.849 c-0.481,0-0.931-0.188-1.265-0.53c-0.334-0.343-0.512-0.797-0.5-1.278l0.301-12.664c0.005-0.206-0.082-0.404-0.236-0.541 c-0.129-0.114-0.294-0.176-0.464-0.176c-0.034,0-0.068,0.003-0.103,0.008c-0.099,0.015-0.177,0.028-0.259,0.028 c-1.007,0-1.825-0.818-1.825-1.825v-9.092c0.002-0.015,0.017-0.124,0.018-0.139c0.072-1.812,1.978-5.728,7.175-5.728 c0,0,0.213,0.006,0.231,0.007c2.892,0.031,4.563,0.543,5.459,0.967c0.218,0.087,0.352,0.156,0.464,0.239l4.349,3.197 c0.121,0.088,0.266,0.136,0.415,0.136h3.919c1.007,0,1.825,0.818,1.825,1.825s-0.818,1.825-1.825,1.825h-4.546 c-0.198,0-0.399-0.038-0.616-0.117c-0.031-0.011-0.063-0.021-0.097-0.027c-0.263-0.055-0.5-0.158-0.705-0.309l-3.218-2.366 c-0.123-0.091-0.269-0.137-0.415-0.137c-0.107,0-0.216,0.025-0.316,0.075c-0.235,0.119-0.384,0.361-0.384,0.625v5.482 c0,0.369,0.021,1.35,0.034,2.003l0.299,16.698c0.009,0.482-0.172,0.938-0.509,1.28C38.44,71.611,37.989,71.8,37.507,71.8z"/><path fill="#472b29" d="M34.43,40.564c0,0,0.001,0,0.002,0l0.153,0.003c0.027,0.002,0.052,0.003,0.074,0.003 c2.746,0.029,4.314,0.505,5.146,0.899c0.03,0.014,0.06,0.027,0.091,0.039c0.114,0.044,0.197,0.087,0.256,0.13l4.351,3.199 c0.24,0.177,0.531,0.272,0.829,0.272h3.919c0.621,0,1.126,0.505,1.126,1.125s-0.505,1.125-1.126,1.125h-4.546 c-0.114,0-0.236-0.025-0.375-0.075c-0.064-0.023-0.129-0.042-0.195-0.055c-0.165-0.034-0.31-0.097-0.432-0.187l-3.219-2.366 c-0.245-0.18-0.536-0.272-0.829-0.272c-0.216,0-0.432,0.05-0.632,0.151c-0.471,0.238-0.768,0.721-0.768,1.249v5.482 c0,0.376,0.021,1.381,0.035,2.04l0.01,0.511L38.587,70c0.005,0.293-0.105,0.569-0.309,0.778c-0.204,0.208-0.478,0.323-0.772,0.323 c-0.624,0-1.16-0.527-1.171-1.163l-0.34-12.588c0-0.773-0.632-1.424-1.405-1.424c-0.385,0-0.755,0.159-1.019,0.44 c-0.235,0.249-0.372,0.592-0.384,0.936h0l-0.43,12.642c-0.015,0.628-0.558,1.159-1.186,1.159c-0.291,0-0.563-0.114-0.764-0.32 c-0.202-0.206-0.309-0.481-0.302-0.772l0.302-12.664c0.01-0.413-0.177-0.807-0.486-1.081c-0.257-0.227-0.596-0.349-0.937-0.349 c-0.07,0-0.14,0.005-0.209,0.015c-0.044,0.007-0.088,0.016-0.129,0.017c-0.621,0-1.126-0.505-1.126-1.125v-9.035 c0.006-0.047,0.012-0.093,0.015-0.141c0.001-0.017,0.002-0.034,0.003-0.051C27.979,44.596,29.255,40.564,34.43,40.564 M34.602,39.163c-0.014,0-0.027,0.004-0.041,0.004c-0.052,0-0.096-0.004-0.149-0.004c-5.836,0-7.798,4.491-7.873,6.375 c-0.005,0.064-0.019,0.126-0.019,0.191v9.092c0,1.389,1.136,2.526,2.526,2.526c0.124,0,0.243-0.019,0.362-0.037l-0.302,12.664 c-0.033,1.389,1.076,2.526,2.465,2.526c1.389,0,2.553-1.136,2.586-2.526l0.429-12.628c-0.001-0.015,0.002-0.023,0.004-0.023 c0.003,0,0.005,0.007,0.005,0.024l0.34,12.626c0.025,1.389,1.182,2.526,2.571,2.526s2.505-1.136,2.48-2.526l-0.289-16.163 c-0.007-0.392-0.045-2.024-0.045-2.526v-5.482l3.219,2.366c0.3,0.22,0.634,0.358,0.977,0.43c0.268,0.098,0.554,0.16,0.855,0.16 h4.546c1.389,0,2.526-1.136,2.526-2.526s-1.136-2.526-2.526-2.526h-3.919l-4.351-3.199c-0.181-0.133-0.376-0.228-0.577-0.306 c-0.978-0.463-2.755-1.002-5.73-1.034C34.649,39.17,34.626,39.163,34.602,39.163L34.602,39.163z"/></g><g><path fill="#472b29" d="M36.5,45h-3c-0.276,0-0.5-0.224-0.5-0.5s0.224-0.5,0.5-0.5h3c0.276,0,0.5,0.224,0.5,0.5 S36.776,45,36.5,45z"/></g><g><path fill="#472b29" d="M30.5,57c-0.276,0-0.5-0.224-0.5-0.5v-11c0-0.276,0.224-0.5,0.5-0.5s0.5,0.224,0.5,0.5v11 C31,56.776,30.776,57,30.5,57z"/></g><g><path fill="#472b29" d="M68.5,45c-0.276,0-0.5-0.224-0.5-0.5V35h-3.688c-0.276,0-0.5-0.224-0.5-0.5s0.224-0.5,0.5-0.5H68.5 c0.276,0,0.5,0.224,0.5,0.5v10C69,44.776,68.776,45,68.5,45z"/></g><g><path fill="#472b29" d="M68.5,52c-0.276,0-0.5-0.224-0.5-0.5V47c0-0.276,0.224-0.5,0.5-0.5S69,46.724,69,47v4.5 C69,51.776,68.776,52,68.5,52z"/></g><g><path fill="#472b29" d="M68.5,55H41.563c-0.276,0-0.5-0.224-0.5-0.5s0.224-0.5,0.5-0.5H68.5c0.276,0,0.5,0.224,0.5,0.5 S68.776,55,68.5,55z"/></g><g><path fill="#472b29" d="M61,35H41c-0.276,0-0.5-0.224-0.5-0.5S40.724,34,41,34h20c0.276,0,0.5,0.224,0.5,0.5 S61.276,35,61,35z"/></g></svg>